<svg xmlns="http://www.w3.org/2000/svg" width="17" height="17.393" viewBox="0 0 17 17.393">
  <defs>
    <style>
      .cls-1 {
        fill: #94a1b2;
      }
    </style>
  </defs>
  <path id="Icon_awesome-facebook" data-name="Icon awesome-facebook" class="cls-1" d="M17.563,9.312a8.626,8.626,0,0,0-8.5-8.75,8.626,8.626,0,0,0-8.5,8.75,8.679,8.679,0,0,0,7.172,8.644V11.841H5.575V9.312H7.734V7.384c0-2.193,1.268-3.4,3.21-3.4a12.719,12.719,0,0,1,1.9.171V6.3H11.776A1.247,1.247,0,0,0,10.391,7.67V9.312h2.357l-.377,2.529h-1.98v6.115A8.679,8.679,0,0,0,17.563,9.312Z" transform="translate(-0.563 -0.563)"/>
</svg>
