<svg xmlns="http://www.w3.org/2000/svg" width="17" height="16.996" viewBox="0 0 17 16.996">
  <defs>
    <style>
      .cls-1 {
        fill: black;
      }
    </style>
  </defs>
  <path id="Icon_awesome-instagram" data-name="Icon awesome-instagram" class="cls-1" d="M8.5,6.378a4.358,4.358,0,1,0,4.358,4.358A4.351,4.351,0,0,0,8.5,6.378Zm0,7.191a2.833,2.833,0,1,1,2.833-2.833A2.838,2.838,0,0,1,8.5,13.569ZM14.049,6.2a1.016,1.016,0,1,1-1.016-1.016A1.014,1.014,0,0,1,14.049,6.2Zm2.886,1.032A5.03,5.03,0,0,0,15.562,3.67,5.063,5.063,0,0,0,12,2.3c-1.4-.08-5.609-.08-7.012,0A5.056,5.056,0,0,0,1.427,3.667,5.046,5.046,0,0,0,.054,7.228c-.08,1.4-.08,5.609,0,7.012A5.03,5.03,0,0,0,1.427,17.8a5.069,5.069,0,0,0,3.561,1.373c1.4.08,5.609.08,7.012,0A5.03,5.03,0,0,0,15.562,17.8a5.063,5.063,0,0,0,1.373-3.561c.08-1.4.08-5.605,0-7.009Zm-1.813,8.514a2.868,2.868,0,0,1-1.616,1.616c-1.119.444-3.774.341-5.01.341s-3.895.1-5.01-.341a2.868,2.868,0,0,1-1.616-1.616c-.444-1.119-.341-3.774-.341-5.01s-.1-3.895.341-5.01A2.868,2.868,0,0,1,3.487,4.11c1.119-.444,3.774-.341,5.01-.341s3.895-.1,5.01.341a2.868,2.868,0,0,1,1.616,1.616c.444,1.119.341,3.774.341,5.01S15.566,14.631,15.122,15.746Z" transform="translate(0.005 -2.238)"/>
</svg>
