<svg xmlns="http://www.w3.org/2000/svg" width="1013" height="1013.763" viewBox="0 0 1013 1013.763">
  <defs>
    <style>
      .cls-1 {
        fill: #b335d1;
      }

      .cls-2 {
        fill: #5eccfb;
      }
    </style>
  </defs>
  <g id="spp_logo" transform="translate(-6 1020.763)">
    <path id="Path_5" data-name="Path 5" d="M486-1019.4c-44.1,2.9-74.6,8-112.8,18.8C304.6-981.2,242.8-948.3,186-901c-16.1,13.4-47.6,44.9-61,61C47.1-746.5,6-633.7,6-513.5S47.1-280.5,125-187c13.4,16.1,44.9,47.6,61,61C279.5-48.1,392.3-7,512.5-7S745.4-48.1,839-126c16.1-13.4,47.6-44.9,61-61,77.9-93.6,119-206.3,119-326.5S977.9-746.5,900-840c-13.4-16.1-44.9-47.6-61-61-56.8-47.3-118.6-80.2-187.2-99.6-39.2-11.1-68.3-15.9-114.9-18.9C510.3-1021.2,512.4-1021.2,486-1019.4Zm60,55.5A449.607,449.607,0,0,1,829.5-833.5c23.6,23.6,41.4,45.3,58.9,71.9,62.4,94.6,86.5,209.8,67.5,322.7-7.1,42.3-22.8,90.4-41.2,126.4C875-235.1,816.5-172.1,743.3-128.2,683.2-92,619.4-71.6,546-64.9c-27.5,2.5-75,.8-101.1-3.6-32.3-5.4-46.8-8.7-70.9-16.2-92.7-28.8-175.5-89.4-232.8-170.1C34.5-405.1,31.1-607.7,132.6-761.6c17.5-26.6,35.3-48.3,58.9-71.9A450.237,450.237,0,0,1,447.1-960.9,447.69,447.69,0,0,1,546-963.9Z"/>
    <path id="Path_6" data-name="Path 6" class="cls-1" d="M510.3-960c-2.1.9-3.1,2.9-3.9,7.8-.5,2.8-2.3,17-2.3,18.6-.1.4-.8.5-1.7.2a3.539,3.539,0,0,0-2.7.1c-1.2.7-2.3.9-9.9,1.9-2.7.3-4.8,1.1-4.8,1.6,0,.6-.6.8-1.3.5-2-.7-11.8,2-14.7,4.2-3.9,2.8-8.5,12.2-7.6,15.5a4.7,4.7,0,0,0,2.5,3.3c1,.3,2.3,1.9,2.8,3.6.9,3.2.9,3.2,7.6,3.2,5.2,0,6.7-.3,6.7-1.4,0-1.2.3-1.2,1.2-.3,1.8,1.8,5.5,1.5,6.7-.6.9-1.4,1.2-1.4,2-.3,1.2,1.8,6.9,0,12.9-4.1a23.781,23.781,0,0,1,6.2-3.3,11.578,11.578,0,0,0,3-1c.5-.3,4,1.9,7.7,4.9,4.7,3.8,6.9,5,7.1,4,.3-1.1.8-1.2,2.4-.3a2.293,2.293,0,0,1,1.4,2.5c-.5,1.2.1,1.5,2.7,1.2,2.7-.2,3.2-.7,3.2-2.8,0-2-.6-2.6-2.7-2.8-3.1-.4-9.3-6.8-11.4-11.8a20.212,20.212,0,0,1-1.4-6.9c0-2.3-.5-3.8-1.6-4.2-1.3-.5-1.3-.7-.2-1.4,1-.7,1.1-.9,0-.9-.7,0-1.1-.4-.8-.9.3-.4-.3-1.6-1.4-2.6-2.1-1.9-2.7-4.5-1.1-4.5.5,0,1.2-.9,1.5-2s.9-2.9,1.2-4.1c.5-1.8.2-2-2.5-1.7-1.6.2-2.9-.2-2.8-.7.1-.6.9-.9,1.6-.8,4.3.5,5.5-8.4,1.6-12.2C514.9-961.2,513.8-961.4,510.3-960Zm-.3,23a1,1,0,0,1-1,1,1.075,1.075,0,0,1-1-1,1,1,0,0,1,1-1A.945.945,0,0,1,510-937Zm-7.1,11.3a6.236,6.236,0,0,1,3,1.4c.9.8,2.6,2.2,3.7,3.1a8.587,8.587,0,0,1,2.8,4.4c.5,2.3.3,2.8-1.4,2.8-1.1,0-2,.5-2,1.1s-.7.9-1.5.5c-.8-.3-4.3.8-7.7,2.4-7.9,3.8-15.5,5.5-20.3,4.6-4.3-.8-9.5-5.4-9.5-8.4,0-3.3,4.4-8.6,8.2-9.9,4.3-1.4,19.7-3.2,21.8-2.5A14.682,14.682,0,0,0,502.9-925.7Z"/>
    <path id="Path_7" data-name="Path 7" class="cls-1" d="M555.7-944c-1.5,2.2-1.3,4.3.6,6.7,1.2,1.7,11.9,1.7,13.5.1,2.3-2.3,1.3-4.8-2.5-6.4C560.7-946.4,557.5-946.5,555.7-944Z"/>
    <path id="Path_8" data-name="Path 8" class="cls-1" d="M551.3-925.3c-1.2,2.7-1.7,6.7-1.7,14.3l-.1,10.4,3,1.6a11.956,11.956,0,0,1,3.8,2.7,3.854,3.854,0,0,0,3,1.3,7.9,7.9,0,0,1,4.1,1.5c2.7,2.1,4,1.9,7.4-1,2-1.7,3.2-2.1,4-1.3a1.985,1.985,0,0,0,2.2.3c.9-.6.9-.9-.1-1.6-1.1-.6-1-.9.4-1.5.9-.3,1.7-1.1,1.7-1.6,0-.7-2.8-.9-7.7-.6a73.306,73.306,0,0,1-9.3.1c-3.2-.7-4.5-12.6-1.8-16a2.2,2.2,0,0,0,.3-2.3c-.4-.6,0-1.9.9-2.9,1.5-1.7,1.4-2-2.2-4.5-2.1-1.4-4.3-2.6-5-2.6C553.6-929,552.3-927.3,551.3-925.3Zm18.5,29.4a1.481,1.481,0,0,1-1.3,1,1.481,1.481,0,0,1-1.3-1c-.2-.6.4-1.1,1.3-1.1S570-896.5,569.8-895.9Z"/>
    <path id="Path_9" data-name="Path 9" class="cls-1" d="M597.1-924.7c-1.4.7-3,2.9-3.7,5-1.6,4.5-8.3,41.8-9.8,54a47.713,47.713,0,0,1-1.6,7.3c-.7,1.9-1,3.7-.8,3.8a18.469,18.469,0,0,0,4.5.9c3.5.4,4.3.2,4.8-1.4a6.084,6.084,0,0,0-.5-3.9c-.7-1.3-.7-2,0-2,.5,0,1-.7,1-1.5s.5-1.5,1.1-1.5c.7,0,.5-.9-.5-2.5-1.3-1.9-1.3-2.6-.3-3.2,1.9-1.2,4-7,3.4-9.4a7.213,7.213,0,0,1,.6-4.3,12.065,12.065,0,0,0,1.3-2.4c.1-.2,3.1.2,6.8.9,3.6.6,7.4.8,8.4.4a14.311,14.311,0,0,1,4.7-1,28.822,28.822,0,0,0,7.9-2.3c4.3-2,4.8-2.4,4.2-4.7-.5-1.8-.2-2.5.8-2.5a2.517,2.517,0,0,1,2.1,1c1,1.6,3.5,1.2,2.9-.5-.4-1,0-1.5,1.1-1.5,2.2,0,4.3-2.3,5.7-6,1.7-5.1-1.2-10.3-7.3-12.9-5.9-2.6-7-2.6-10.2-.1-2.8,2.3-4.8,2.6-4.4.8.3-1.5-3.3-2.1-5.2-.9a4.733,4.733,0,0,0-1.6,3.3c-.2,2.9-1.9,3-2.3,0a4.757,4.757,0,0,0-2.3-3.2c-1.3-.8-1.9-2.1-1.9-4.5,0-2.8-.6-3.7-3-5C599.5-926.3,600.1-926.3,597.1-924.7Zm12.2,15c.5,1.3.1,1.7-1.7,1.7-3.6,0-5.6-1-5.6-2.8,0-1.3.2-1.3,1.8.1,1.8,1.6,1.8,1.5,1.4-1.4-.5-3.1-.5-3.2,1.5-1.2A14.544,14.544,0,0,1,609.3-909.7ZM638-911a1,1,0,0,1-1,1,1.075,1.075,0,0,1-1-1,1,1,0,0,1,1-1A.945.945,0,0,1,638-911Zm-8,1.2c0,.2.4,1.8.9,3.6.6,1.8.6,3,.2,2.8-.9-.6-5.1,4.7-5.1,6.4,0,.5-.9,1-2,1-1.2,0-3.2,1.1-4.5,2.4-1.5,1.5-2.8,2-3.7,1.5-.7-.5-3.1-.7-5.3-.4-2.9.4-4.6.1-6.3-1.3-3.5-2.7-1.6-6.4,5-9.8A37.247,37.247,0,0,0,615-907c.8-1.2,5.8-2.5,10.5-2.8A27.934,27.934,0,0,1,630-909.8Zm4.5,11.8c.3.5.1,1-.4,1a1.1,1.1,0,0,1-1.1-1c0-.6.2-1,.4-1C633.7-899,634.2-898.6,634.5-898Zm-33,5.7c.1,2.3-.3,2.8-2.2,2.8-1.7,0-2.3-.6-2.3-2.3,0-1.3.4-2.1.9-1.8s1.2-.1,1.5-1C600.3-896.8,601.3-895.7,601.5-892.3Zm23.5.3c0,.5-.7,1-1.6,1-.8,0-1.2-.5-.9-1a1.9,1.9,0,0,1,1.6-1A.923.923,0,0,1,625-892Zm-32,15.9a1.9,1.9,0,0,1-1,1.6c-.5.3-1-.1-1-.9,0-.9.5-1.6,1-1.6A.923.923,0,0,1,593-876.1Z"/>
    <path id="Path_10" data-name="Path 10" class="cls-1" d="M421.2-922a13.415,13.415,0,0,0-2.6,5.2,4.274,4.274,0,0,1-2.5,3.5c-1.2.3-1.7,1.1-1.4,1.9s.1,1.4-.5,1.4a1.716,1.716,0,0,1-1.4-1.2c-.3-.7-1.6.6-3.1,2.9a21.957,21.957,0,0,1-3.7,4.8,3.421,3.421,0,0,0-1,2.5c0,1.3-.6,1.8-2,1.5-3.1-.6-4-1.4-4-3.6a3.589,3.589,0,0,0-2.2-2.9c-1.3-.5-1.7-.9-.8-.9.9-.1-.2-1.7-2.8-4-2.3-2.1-4.2-4.6-4.2-5.5,0-1-.9-1.6-2.2-1.6-1.9,0-2-.2-.8-1.1,1.3-.8,1.2-1-.4-.7-1.3.2-1.9,1.3-2.2,4.2-.4,4.9,5.1,21.3,7.6,22.6a2.422,2.422,0,0,1,1.3,2.8c-.2,1,.5,2.9,1.6,4.4,2,2.4,2.3,2.5,5.8,1.3,3.7-1.3,7.3-4.7,7.3-6.9,0-.6.9-1.7,2-2.3,1-.7,2.4-3.1,3-5.4,1.1-3.8,6.6-10.9,8.5-10.9a6.143,6.143,0,0,0,2.7-1.6c2.3-2.2,4.1-.8,6.9,5.5s5.6,9.1,9.3,9.1a29.014,29.014,0,0,1,6.4.9c3.1.9,3.3.8,2.6-1.1l-.6-2.1,3,2.2c3.1,2.2,5.8,2.8,4.7,1.1a14.675,14.675,0,0,0-4.4-2.9c-2.3-1.2-5.2-4.1-7.4-7.6-2.1-3-4.1-5.4-4.5-5.1s-.8-.3-.9-1.2c-.5-6-4.1-9.3-11.5-10.6C423.8-923.9,422.8-923.7,421.2-922Zm1.3,5c.3.5.1,1-.4,1a1.1,1.1,0,0,1-1.1-1c0-.6.2-1,.4-1C421.7-918,422.2-917.6,422.5-917ZM387-912.5c0,.8-.4,1.5-1,1.5-.5,0-1-.7-1-1.5s.5-1.5,1-1.5C386.6-914,387-913.3,387-912.5Zm53.9,4.4c.7.5.9,1.1.4,1.4-.4.3-1.7-.1-2.8-.9C436.4-909.2,438.5-909.6,440.9-908.1ZM398.3-900c.8,0,.8.3-.1,1.2-1.9,1.9-3.6-.5-2.6-3.9l.8-2.8.4,2.7C397-901.2,397.6-900,398.3-900Zm45.7-3.6c0,1.1-1.9,1.5-2.5.6-.3-.5.1-1,.9-1C443.3-904,444-903.8,444-903.6Zm-44,7.5c0,2.9-1.5,3.3-3.4,1.2-1.7-1.8-1.7-2,.1-2.4C399.8-898.1,400-898,400-896.1Z"/>
    <path id="Path_11" data-name="Path 11" class="cls-1" d="M664-917c-2.5,4.7,1.6,8.7,9.5,9.2,4.8.3,5,.2,5.3-2.4.3-2.3-.4-3.2-4.4-5.8C668.8-919.5,665.5-919.8,664-917Z"/>
    <path id="Path_12" data-name="Path 12" class="cls-1" d="M709.2-905.8c-1.9,1.9-1.4,2.8,1.3,2.8,1.4,0,2.5.4,2.5.8s1.6,1.4,3.5,2.1c3.4,1.2,4.8,3.1,2.3,3.1-.6,0-.9.3-.5.6.3.4,0,1.3-.8,2-1.5,1.5-8,2-7.1.5.3-.4,1.7-.6,3.1-.3,1.5.2,2.5,0,2.5-.7a1.018,1.018,0,0,0-.9-1.1c-.5,0-1.1-1-1.5-2.3-.3-1.3-1.8-2.7-3.6-3.4l-3.1-1.1-5,9.6c-5.8,11.3-8.8,16.3-11.2,18.9-3,3.4-4.8,10.2-3.8,14.1,1.3,4.4,3.8,7.2,5.9,6.5.9-.4,1.3-.2.9.4-.9,1.4,9,8.6,10.9,7.9.8-.3,1.3-.2,1,.3s.1,1.2,1,1.5c2.6,1,5.4.7,5.4-.7,0-1.5-8.7-7.3-10.3-6.9-.7.2-.9,0-.5-.4s-.6-2.4-2.3-4.5c-2.8-3.5-2.9-4-1.5-5.5,1.8-1.8,2.1-3.4.6-3.4a1.1,1.1,0,0,1-1-1.1c0-.6.7-.8,1.6-.5,1.3.5,1.5.1,1.2-2.5-.3-2,0-3.3.9-3.6.8-.3,1.1-1.3.8-2.4-.4-1.3-.1-1.9.9-1.9.9,0,1.6.4,1.6,1,0,1.5,2.7,1.2,4.4-.5a3.452,3.452,0,0,0,1-3c-.4-.9,0-1.5,1-1.5a1.561,1.561,0,0,1,1.6,1.5c0,.8-.4,1.5-1,1.5a1,1,0,0,0-1,1c0,.5.9,1,1.9,1,1.5,0,1.9-.7,1.8-3.3-.1-2.8-.4-3.2-2.6-3.2-1.9,0-2.7-.6-2.9-2.3-.4-2.4.8-2.8,3.7-1.2,1.5.8,2.1.3,3.4-3a8.112,8.112,0,0,1,5.1-5.4c2-.8,3.6-1.8,3.6-2.1s-.4-.3-1,0c-.5.3-1,.1-1-.4,0-.6.7-1.1,1.5-1.1.9,0,1.2-.6.9-1.5a2.528,2.528,0,0,0-2-1.5,1.266,1.266,0,0,1-1.4-1.1c0-.8-.4-.8-1.4,0s-1.6.8-2.5-.2c-.6-.8-.8-1.6-.5-1.9.2-.3-.2-.8-1.1-1.1-.8-.4-1.5-.2-1.5.3,0,.6-.7,1-1.5,1-1.8,0-2-1.6-.2-2.3q1.2-.6-.3-.6A3.84,3.84,0,0,0,709.2-905.8ZM705-885a1,1,0,0,1-1,1,1.075,1.075,0,0,1-1-1,1,1,0,0,1,1-1A.945.945,0,0,1,705-885Zm2,5c0,.5-.2,1-.4,1-.3,0-.8-.5-1.1-1-.3-.6-.1-1,.4-1A1.028,1.028,0,0,1,707-880Zm-12.3,10.7c-.9.9-1.9,1.4-2.3,1.1-1-1,.6-2.8,2.4-2.8C696.3-871,696.3-870.9,694.7-869.3Zm-3.5,10.5c-.7.7-1.2.8-1.2.2,0-1.4,1.2-2.6,1.9-1.9C692.1-860.2,691.8-859.4,691.2-858.8Z"/>
    <path id="Path_13" data-name="Path 13" class="cls-1" d="M355.9-903.9c-1.2.8-1.2,1,.1,1.9,1.8,1.2,2.7,1.2,3.3.2C360.2-903.1,357.4-904.9,355.9-903.9Z"/>
    <path id="Path_14" data-name="Path 14" class="cls-1" d="M656.7-901.1c-2.7,3.3-7.2,13.8-8.3,19.5-.6,3.7-.5,4,5.7,9.8,7.2,6.7,10.1,7.8,14.1,5.5,2.4-1.4,2.8-1.4,2.8-.2,0,.8.9,1.5,2,1.5,1.3,0,1.8-.5,1.4-1.5s0-1.5,1.1-1.5c.9,0,1.5-.6,1.3-1.2-.4-1.2-4-2.4-13.3-4.4l-4-.9-.2-5.8c-.1-3.1.3-5.7.8-5.7s.9-.9.9-1.9a3.033,3.033,0,0,1,1.5-2.5,1.554,1.554,0,0,0,.9-2c-.3-.8.3-1.9,1.6-2.6,2.1-1.1,2.1-1.1-1-5.1-1.8-2.1-3.5-3.9-4-3.9S658.1-902.7,656.7-901.1Zm10.1,33.2a1.481,1.481,0,0,1-1.3,1,1.481,1.481,0,0,1-1.3-1c-.2-.6.4-1.1,1.3-1.1S667-868.5,666.8-867.9Z"/>
    <path id="Path_15" data-name="Path 15" class="cls-1" d="M351.5-902c-1.6.7-1.7.9-.3.9a2.736,2.736,0,0,0,2.3-.9C354.2-903.1,354.2-903.1,351.5-902Z"/>
    <path id="Path_16" data-name="Path 16" class="cls-1" d="M360.5-901.1a1.216,1.216,0,0,0,.5,1.6c.8.5-1.7,4.1-5.6,7.9a3.211,3.211,0,0,0-.6,2.9c.4,1.6.1,1.8-1.6,1.3-1.3-.4-2.4-.2-2.9.7-.4.8-2.4,2.2-4.3,3.2-4.8,2.4-9,6.4-8.3,8.1.3.9-.2,1.4-1.5,1.4-1.4,0-2.1-.8-2.4-3-.3-1.7-.2-3,.2-3s1.2-1.8,1.9-4.1a17.739,17.739,0,0,1,3.2-6c2.7-2.7,2.4-3.6-1-3.5-1.6.1-2.7.4-2.4.8.2.5-.3.8-1.2.8a2.534,2.534,0,0,0-2.1,1.5c-.4.8-1.1,1.2-1.6.9-1.6-1-2.7,1.7-2.1,4.8.4,2.1.2,2.8-.9,2.8a6.341,6.341,0,0,0-3.3,1.9c-1.6,1.9-1.6,2.2.6,6.3,1.8,3.2,3.8,5,7.8,7,5.8,3,10.6,3.6,11.5,1.5.4-.8.8-.8,1.1-.1.9,1.8,14-.2,19.2-3a111.252,111.252,0,0,1,12.2-4.8c7.6-2.4,10.5-4.8,8.4-6.9-.9-.9-2.3-.8-5.7.2-2.5.7-4.6,1.6-4.6,1.9s-1.3.6-2.8.7a29.587,29.587,0,0,0-5.6,1.2c-2.2.9-2.6,1.5-2.1,3.2.6,1.9.5,2-.8.8-.8-.8-1.3-1.7-1.1-2,.7-1.1-4.9-.8-11.4.7-3.5.8-6.8,1.2-7.3.8-1.7-1-.9-2.2,2.4-3.4,4.6-1.5,7-3.6,7.2-6.2a2.48,2.48,0,0,1,2.4-2.6c1.5-.2,2.1-.9,1.7-1.8-.3-.8-.1-1.4.4-1.4a1.028,1.028,0,0,1,1,1.1c0,.6.7.4,1.5-.5a40.783,40.783,0,0,1,4.5-3.3c3.2-1.9,4.2-3.7,3.5-6.8a25.069,25.069,0,0,1-.4-2.7c-.1-.4-.8-.5-1.6-.2-.8.4-1.5.1-1.5-.5C365-902.2,361.4-902.4,360.5-901.1Zm4.5,5.6c.7.8.8,1.5.2,1.5a4.29,4.29,0,0,1-2.2-1.5c-.7-.8-.8-1.5-.2-1.5A4.289,4.289,0,0,1,365-895.5ZM331-887a1,1,0,0,1-1,1,1.075,1.075,0,0,1-1-1,1,1,0,0,1,1-1A.945.945,0,0,1,331-887Zm48,9.5c-.7.9-1.5,1.3-1.9,1-.3-.3.1-1,.9-1.5C380.1-879.4,380.4-879.2,379-877.5Zm-27.1,10.6c-2.2,1.4-3.3,1-1.9-.6.7-.8,1.7-1.2,2.2-.9C352.8-868,352.7-867.4,351.9-866.9Z"/>
    <path id="Path_17" data-name="Path 17" class="cls-1" d="M346.7-898.9a5.817,5.817,0,0,1-3.6,1.9c-4.6,0-6.9,2.4-2.6,2.6,1.4.1,2.5-.2,2.5-.7s.8-.9,1.8-.9c2.2,0,5.8-3.5,4.4-4.3C348.8-900.7,347.6-900,346.7-898.9Z"/>
    <path id="Path_18" data-name="Path 18" class="cls-1" d="M299.6-878.9a27.464,27.464,0,0,0-5.1,5.9c-2.4,3.9-9.3,8-13.2,8-3.5,0-8.2,4.6-8,7.8.2,2.6.5,2.7,5.6,2.7,4.7.1,5.7.5,7.8,3,1.4,1.7,3.9,4.6,5.7,6.5a34.114,34.114,0,0,1,4.6,6.5c.9,1.6,2.2,2.9,2.9,2.7a2.161,2.161,0,0,1,2.2,1c.7,1,1.1,1,2.2-.2,2.5-2.6,2.8-7.6.8-10.2a18.593,18.593,0,0,1-2.5-4.5c-.4-1.2-2.5-3.8-4.7-5.8-4.5-4.1-4.5-5.2.2-11.2,3.9-4.9,5.2-5.6,11-5.7,5.6-.2,5.9-.5,6.4-4.3.4-3.6-.8-4.3-7.6-4.3C303.7-881,301.6-880.5,299.6-878.9Z"/>
    <path id="Path_19" data-name="Path 19" class="cls-1" d="M716-875.2a1.935,1.935,0,0,0,1.3,1.5.786.786,0,0,1,.4,1.3c-.5.5-1.3.1-1.8-.9-1.5-2.6-2.9-2-2.9,1.1,0,4.2,2.8,6.3,8.4,6.1,5.3-.3,7.6-2,5.5-4.5C724.6-873.4,716-877,716-875.2Z"/>
    <path id="Path_20" data-name="Path 20" class="cls-1" d="M736.7-858.8c-4.4,4.6-6.1,10.4-4.5,14.9,1.4,4.2,5.6,9.9,7.3,9.9.7,0,1.5.9,1.8,2a3.9,3.9,0,0,0,2.4,2.6,23.647,23.647,0,0,1,5.3,3.9c3.3,3,3.8,3.2,8,2.5,2.5-.4,4.1-.8,3.7-.9-.9-.1,1.7-3.1,2.7-3.1.3,0,.6.9.6,2s-.5,2-1.1,2-.9.7-.5,1.5c1.1,2.9-3.2,10-9.7,16.3l-6.6,6.3-8.5-.3c-7.5-.2-8.7,0-10.1,1.7-.8,1.1-1.3,1.3-1,.5.6-1.9-5.6-6.3-7.8-5.4-1.1.4-2.5-.4-4-2.2-1.9-2.2-2.9-2.6-5-2-3.3.8-3.9,4.6-.8,4.6a3.5,3.5,0,0,1,2.6,1c.4.7-.2.9-1.7.7-1.2-.2-1.7-.2-1,0a1.993,1.993,0,0,1,1.2,1.5c0,.6.3.8.7.4.4-.3,1.5,1.2,2.6,3.5,3,6.5.7,16.4-5.3,22.6-2.7,3-8.7,3.1-12.4.2-2-1.5-2.6-2.9-2.6-5.7.1-7.2,1.7-11.6,5.5-14.8,4.1-3.4,4.4-6.7.9-7.2-4.9-.7-13.6,14.8-12,21.2.4,1.5,2.7,4.7,5.1,7.2,4.1,4,4.9,4.4,9.5,4.4,8.8,0,15.9-5,17.9-12.6,1.7-6.5,5.7-9.2,14.4-9.8,4.9-.4,9.7-2.1,9.7-3.6,0-.5.9-1,1.9-1a3.234,3.234,0,0,0,2.5-.9c.3-.5,2.2-1.2,4.2-1.5a19.911,19.911,0,0,0,8-4.8c4.2-3.8,4.3-4.2,2.8-5.9-.9-1-1.3-2.2-1-2.8.9-1.4,3.6-.2,3.6,1.6,0,.8.5,1.1,1,.8.7-.4.7-1.3,0-2.6-1.1-2,.3-2.8,1.6-.8.5.8,1,.6,1.6-.5a3.135,3.135,0,0,0,.3-2.6c-.3-.6.5-1,1.8-1,2.7,0,4.8-2.1,6.7-6.8,2.2-5.7-2-11.8-5.7-8.1a2.763,2.763,0,0,0-.7,2.4c.9,2.3-1.2,2.5-4.9.5a26.432,26.432,0,0,0-9.4-2.3c-5.4-.3-7.3-1-13.1-5.3a17.21,17.21,0,0,1-1.7-4c-1-3.1-1-4,0-5.1a23.848,23.848,0,0,0,3.1-5.8c1.7-4.5,1.6-4.7-.2-7.2a23.052,23.052,0,0,0-4.2-4.1C740.1-862.2,739.8-862,736.7-858.8Zm3.7,3.3c.3.8.1,1.5-.3,1.5-.5,0-1.1-.7-1.5-1.5-.3-.8-.1-1.5.3-1.5C739.4-857,740-856.3,740.4-855.5Zm-5.9,8.5c.3.5.2,1-.4,1a2.335,2.335,0,0,1-1.6-1c-.3-.6-.2-1,.4-1A2.039,2.039,0,0,1,734.5-847ZM719-792.2c0,.4,1,1.3,2.3,2.1,2,1.3,2.1,1.3.9-.2-1.5-1.8-.2-3,2.2-2.1,1.8.7,2.2,2.4.5,2.4-.5,0-.8.3-.6.7.3.5-.1,1.3-.8,1.9-.9.9-2,.7-4.3-.8-3.2-2-3.8-2.9-2.5-4.1C717.6-793.2,719-793.2,719-792.2Z"/>
    <path id="Path_21" data-name="Path 21" class="cls-1" d="M519.8-857.3c-4.2,2.5-4.7,3.2-5.2,7.5a20.863,20.863,0,0,0,1,9.8c1.7,5.1,3,5.9,4.6,2.7.4-.9,1.2-2.5,1.7-3.5,1-2.1,5.7-2.7,11.8-1.4,7.9,1.7,9.9-.8,2.8-3.5-2.2-.8-6-1.9-8.4-2.6-5.5-1.5-7.5-4.2-4.6-6.3,2-1.6,4.5-1.6,19.3.2,4.9.6,5.4.5,5-1.1-.4-2.3-4.1-3.3-14.8-4C525-860,524.2-859.8,519.8-857.3Z"/>
    <path id="Path_22" data-name="Path 22" class="cls-1" d="M487.5-855.5c-.8,1.4-2.1,3.5-2.9,4.8-2.5,4.2-6.6,15.3-6.6,18,0,3.9,2.3,3.3,4.9-1.3,1.8-3.3,3.1-4.2,7.3-5.5,7.9-2.3,10.3-2,13.9,2,3.5,3.8,4.9,4.4,4.9,1.9,0-1.6-9.4-15.7-13.3-20.2C493-858.8,489.4-858.6,487.5-855.5Zm9.2,9.8c-.5,1.8-5.7,2.2-5.7.5a4.151,4.151,0,0,1,1.2-2.6C493.6-849.2,497.3-847.5,496.7-845.7Z"/>
    <path id="Path_23" data-name="Path 23" class="cls-1" d="M558.3-851.5c-2.4,1.7-4.1,8.1-4.5,16.5l-.3,5.5L561-827a89.278,89.278,0,0,1,10.8,4.4c3.4,1.8,7.3,1.8,7.9.1.4-1.5-6-5.3-11.4-6.6-4.7-1.2-8.3-3.4-8.3-5.1,0-.5,1.4-1.4,3-1.9,3.3-1.2,3.9-2.6,1.5-3.5-4-1.6-4.2-8.4-.3-8.4,2.4,0,11.2,2.4,18.7,5.1,7.3,2.7,8.6,1.1,2.6-3-2.5-1.7-5.4-3.1-6.5-3.1a47.113,47.113,0,0,1-8.2-2C563.2-853.4,561.1-853.5,558.3-851.5Z"/>
    <path id="Path_24" data-name="Path 24" class="cls-1" d="M459.5-850c-7.4,1.8-12.7,6-13.9,11.1-.9,4,1.5,5.3,10.8,5.9,6.7.4,8.1.8,8.4,2.3.2,1-.7,2.7-2.2,3.8-3.5,2.7-3.6,6.9-.2,6.9,2.9,0,8.3-6.3,9.2-10.8.6-2.7.2-3.3-2.7-5.1a15.58,15.58,0,0,0-7.7-2.1c-4.5,0-8.2-1.4-8.2-3,0-1.5,6.1-5,8.6-5s3.8-2.4,2.1-3.8C463-850.3,461.2-850.4,459.5-850Z"/>
    <path id="Path_25" data-name="Path 25" d="M249.1-842.1c-1.1.7-.9,1,.8,1.6,2.5.8,3.6.2,2.6-1.4C251.7-843.2,251-843.3,249.1-842.1Z"/>
    <path id="Path_26" data-name="Path 26" class="cls-1" d="M256-842a1.494,1.494,0,0,0-.6,1.9c.4.6-.4,3.6-1.8,6.6s-2.1,5.5-1.5,5.5a.923.923,0,0,1,.9,1c0,.5-.9,1-2,1s-2,.7-2,1.5-1.8,3.1-4,5.1c-2.2,2.1-4,4.3-4,5s-.9,1.9-2.1,2.7c-1.9,1.4-1.9,1.6-.3,2.5s1.6,1-.4,2.1c-1.5.8-2.2.8-2.3.1a18.376,18.376,0,0,0-.9-3.8,52.634,52.634,0,0,1,.4-9.3,25.627,25.627,0,0,1,2.4-5.5c1.1-2.3,1.9-4.4,1.6-4.7s.4-.8,1.5-1.2c2.3-.7,4.6-4.1,3.3-4.9-.5-.3-1.8.8-3,2.4a8.627,8.627,0,0,1-4.3,3.2,3.6,3.6,0,0,0-2.7,1.6c-.2.7.2,1,1.1.6a2.041,2.041,0,0,1,2.3.7c.4.7.3,1-.3.6-1.3-.8-7.3,4.5-7.3,6.5,0,1-.3.9-1-.2-.5-.8-1-1.2-1-.8a10.508,10.508,0,0,1-.7,2.4c-.4,1.2-.3,1.5.5,1,.7-.4,1.2-.2,1.2.3a1.1,1.1,0,0,1-1,1.1c-.7,0-.7.7.1,2.1.9,1.8.8,2.4-.5,3.1A7.849,7.849,0,0,0,225-809c-1.5,2.8,3.9,8.6,9.3,10.1,4.8,1.3,12.6.3,13.4-1.7a2.285,2.285,0,0,1,2-1.4c.8,0,1.1.5.8,1-1.3,2.1,13.2-6,16-9a27.528,27.528,0,0,1,6.8-5.1c2-1.1,3.7-2.3,3.7-2.7s1.6-1.6,3.6-2.7c5.5-3,7.2-8.5,2.6-8.5-2.3,0-5.6,3.5-4.7,4.9.3.6.1,1.1-.4,1.1a1.23,1.23,0,0,1-1.1-1.3c-.1-.8-.5-.7-1.3.4a17.824,17.824,0,0,1-4.7,3.4c-5.5,2.7-6.2,3.5-4.9,5.2,1.6,1.8.5,2.8-1.2,1-1.7-1.7-2.6-1.5-11.6,3.1-4,2-7.6,3.2-8,2.8-.4-.5-.2-1.1.5-1.3.6-.3,1-.9.6-1.4-.3-.5-.1-.9.5-.9,1.5,0,5.8-4.6,6.6-7,.4-1.1.2-2-.4-2-1.7,0-.1-2.8,2-3.3a5.313,5.313,0,0,0,2.8-2.9,21.881,21.881,0,0,1,3.5-5c2.6-2.8,3.3-6.2,1.7-8.7C262-842.5,257.9-843.2,256-842Zm5,6.2c0,.5-.9.4-2-.2s-2-1.2-2-1.4.9-.2,2,.1S261-836.4,261-835.8Zm-4,8.8a1,1,0,0,1-1,1,1.075,1.075,0,0,1-1-1,1,1,0,0,1,1-1A.945.945,0,0,1,257-827Zm-1.2,21.2a2.475,2.475,0,0,1-1.6,1.4c-.7.1-.8,0-.2-.3a.923.923,0,0,0,.4-1.4c-.3-.5,0-.9.6-.9C255.7-807,256-806.5,255.8-805.8Z"/>
    <path id="Path_27" data-name="Path 27" d="M245.1-839.1c-.7.5-.9,1.1-.4,1.4.4.3,1.7-.1,2.8-.9C249.6-840.2,247.5-840.6,245.1-839.1Z"/>
    <path id="Path_28" data-name="Path 28" class="cls-1" d="M394.4-818.4c1,10.8.5,11.1-9.8,6.3-9.8-4.6-13.6-5-13.6-1.7.1,3.1,8.2,18.2,9.5,17.7.6-.2,1-2.7,1-5.4,0-4.4.3-5,2.2-5.3,1.2-.2,4.2.8,6.6,2.2,4.5,2.7,11,3.5,12.2,1.5,1-1.6-1.5-18.1-3.1-20.7a5.034,5.034,0,0,0-3.6-2.2C393.8-826,393.8-825.7,394.4-818.4Z"/>
    <path id="Path_29" data-name="Path 29" class="cls-1" d="M809.7-822a5.94,5.94,0,0,1-3.9,2c-2.3.1-2.3.1-.3,1.7,1.5,1.2,1.6,1.4.3,1-1.3-.5-1.6,0-1.5,2.1l.3,2.7h13.9c12.1.1,14.2-.2,15.7-1.7,2.5-2.5,2.3-6.4-.4-8.2-1.3-.8-4.3-1.3-6.8-1.1-6.7.3-7.2.4-6.5,1.5.3.5.2,1-.4,1a2.2,2.2,0,0,1-1.6-1,1.575,1.575,0,0,0-2-.3c-.8.3-1.5,0-1.5-.6C815-824.7,811.6-824.1,809.7-822Zm6.8,2c.3.5-.1,1-1,1s-1.3-.5-1-1c.3-.6.8-1,1-1S816.2-820.6,816.5-820Z"/>
    <path id="Path_30" data-name="Path 30" class="cls-1" d="M666.5-816a1.927,1.927,0,0,0-.4,1.4c1.2.9,21.2,10.6,22.1,10.6.5,0,.8-1,.6-2.3C688.3-810.1,668.2-818.8,666.5-816Z"/>
    <path id="Path_31" data-name="Path 31" class="cls-1" d="M192.6-813.5a11.825,11.825,0,0,0-2.6,3,5.112,5.112,0,0,1-1.5,2.1c-.8.9-1.5,1.2-1.5.8,0-.3-.7-.1-1.5.6a3.1,3.1,0,0,0-1,3.1,2.207,2.207,0,0,1-.5,2.4c-.5.3-1,0-1-.7,0-.8-.5-.6-1.1.4a3.935,3.935,0,0,1-2.7,1.9c-1,0-1.2.3-.4.6,2.1.8,1.4,3.2-.8,2.6-1.4-.4-2,0-2,1a2.991,2.991,0,0,0,.9,2.2c.5.3-.1,1.7-1.5,3-2.2,2.2-2.5,3.3-2.3,9.2.2,5.4.7,7.1,2.5,8.9,2.1,2.2,5.3,2.3,8,.3.5-.5,1.9-.6,3.1-.3,2.5.7,6.4-1.2,6-2.9-.1-.7.6-1.2,1.6-1.2a3.308,3.308,0,0,0,2.6-1.3c.5-.8,1.1-1.3,1.5-1.3,2.4.3,3.8-.2,6.4-2.4,2.1-1.7,4.9-2.8,9.1-3.3,6.2-.9,6.9-.7,6.5,1.5-.1.7-.2,2.6-.3,4.3-.1,1.9-.6,3-1.5,3-1.6,0-3.1,3.4-2.2,4.9.3.5-.4,1.2-1.7,1.6-1.9.6-1.9.8-.4,1.2,1.9.5,2.2,1.9.6,2.9a1.707,1.707,0,0,1-2-.7c-.6-1.1-.9-1-1.5.5-1,2.6,1.8,9.9,4,10.2,1.2.2,1.5-.3,1.1-1.7-.4-1.1-.2-1.9.5-1.9.6,0,.8-.5.4-1.1-.5-.8-.1-.8,1.3,0,2.7,1.4,4.3-.3,4.3-4.5,0-1.8.5-3.6,1-3.9a1.1,1.1,0,0,0,.5-1.5c-.3-.4.1-1,.9-1.3,2.2-.9,4-10.8,2.5-14-.7-1.5-1.6-2.4-2-2.1a.552.552,0,0,1-.9-.5,1.018,1.018,0,0,1,.9-1.1c1.1,0,.2-3.8-1.1-4.6-1.8-1.2-7.7.6-8.3,2.5-.7,2.2-4,1.8-5-.6-.5-1.3-.3-1.4,1.1-.3,1.3,1.2,1.7,1.1,2.4-.1,1.2-1.8-1.1-2.4-4.8-1.3a12.4,12.4,0,0,1-3.4.6c-.4-.1-.5.5-.1,1.4.5,1.3.2,1.5-1.5,1-2.2-.7-6.4.9-5.9,2.2a.709.709,0,0,1-.6.9c-.4.2-2.1,1-3.8,1.9a14.807,14.807,0,0,1-7,1.2c-4.2-.4-5.8,1.2-3.3,3.2a4.2,4.2,0,0,1,1.4,2.8c0,.8-.3,1.2-.7.9-.3-.4-1.8,0-3.1.9-2.3,1.5-2.5,1.5-1.9-.1a9.624,9.624,0,0,0,.7-2.1c0-.3.5-.2,1,.1.6.3,1-.3,1-1.4a3.234,3.234,0,0,0-.9-2.5c-.5-.3-.8-1.7-.8-3.1s.4-2.2,1-1.8.8-.2.5-1.5c-1-3.5,7.8-15.2,11.3-15.2,2.5,0,6.9-3.9,6.9-6.2,0-1.6-.5-1.9-2.1-1.5-1.7.5-1.8.3-.8-1,1-1.2,1-1.6-.2-2.4C195.9-816.4,195.6-816.3,192.6-813.5Zm25.2,26.2a3.358,3.358,0,0,1-3.5.9c-1.5-.7-1.4-.9,1.2-2C219.1-790,220-789.5,217.8-787.3Zm-8.8,1.7c0,.2-.7.6-1.5,1-.8.3-1.5.1-1.5-.4,0-.6.7-1,1.5-1S209-785.8,209-785.6Z"/>
    <path id="Path_32" data-name="Path 32" class="cls-1" d="M656.1-810.8c-2.3,5.2-3.5,13.4-2,14.4.6.3,2.3-.6,3.8-2,3.5-3.4,5.4-3.3,12.8.6,4.6,2.4,6.5,3,7.3,2.2,1.3-1.3.3-2.4-5.5-6.4-6.7-4.6-8.4-6.5-8.8-9.5-.3-2.4-.9-3.1-3-3.3C658.4-815.1,657.8-814.5,656.1-810.8Z"/>
    <path id="Path_33" data-name="Path 33" class="cls-1" d="M348.1-808.6c-1.4,1.6-3.7,24.6-2.7,27.1,1,2.8,2.9,1.2,4.5-4,1.4-4.3,2.2-5.2,7.2-7.9,5.9-3.2,6.9-3.1,12.1.6.9.7,2.1.9,2.5.4,1.3-1.3-17.9-17.6-20.8-17.6A4,4,0,0,0,348.1-808.6Zm9.4,9.6c0,.8-1,1.6-2.2,1.8-2.2.3-3.2-1.6-1.6-3.2C354.9-801.5,357.5-800.6,357.5-799Z"/>
    <path id="Path_34" data-name="Path 34" class="cls-1" d="M805.1-795.4c-3.5,4.5-2.6,7.6,3,10.5,3,1.5,3.9,2.5,3.9,4.4,0,1.4.5,2.5,1.1,2.5s.9.6.6,1.2c-.2.7.7,2.9,2,4.8,2.4,3.6,2.9,7.5,1.4,9.9-.8,1.2-1.8.7-5.6-2.5-2.6-2.1-6.5-5.3-8.6-6.9a20.352,20.352,0,0,1-5.3-6.7c-2.7-6.6-9.5-8.8-11.2-3.6-.5,1.6.4,3,3.9,6.2,2.5,2.2,4.7,5,4.9,6.1s1,1.9,1.6,1.7c.7-.1,1.1.3,1,.9-.2.6.6,1.6,1.6,2.2,1.1.7,2.9,2,4,2.9a6.591,6.591,0,0,0,3.2,1.8,2.136,2.136,0,0,1,1.7,1.4c.7,1.6,7.7,3,10.7,2.1a2.876,2.876,0,0,0,2-2.5,3.421,3.421,0,0,1,1-2.5c2.3-1.4-.1-9.4-2.9-9.6-.9,0-1.1-.3-.4-.5,1.6-.7-.2-5.7-3.9-10.9a29.825,29.825,0,0,1-3.3-6.3c-.3-1.8.1-2.2,2.1-2.2,1.7,0,2.4-.5,2.4-1.9,0-2.9,1.7-3.4,2.4-.8.3,1.2.1,2.4-.4,2.5a.828.828,0,0,0-.4,1.3c.3.6,1.1.5,2-.2,1.8-1.5,3.1-.4,1.6,1.3-.8,1-.1,2.3,3,5.3,4.4,4.3,6.8,8.9,6.8,13,0,3.3,2.4,3.3,4.6,0,1.2-1.9,1.5-3.6,1-6.6-1-6.2-3.1-9.5-8.4-13-2.6-1.8-4.9-3.5-5.2-3.8-2-2.3-4.7-3.3-9.8-3.7C807.6-798,807.1-797.9,805.1-795.4Z"/>
    <path id="Path_35" data-name="Path 35" class="cls-1" d="M323.4-794c-15.7,11.9-17.9,14.8-15.3,19.7,1.9,3.5,12,13.3,13.8,13.3.8,0,3.2-1.5,5.5-3.3a93.992,93.992,0,0,1,8.4-6.1c3.1-1.9,4.2-3.3,4.2-5.1,0-3.3-1-3.2-6.2,1-6.4,5.1-10.6,7.1-12,5.7-.9-.9-.9-1.8.1-3.8,1.4-3.2.9-3.9-1.7-2.5-3.2,1.7-6,1.3-7.3-1.1-1.1-2-.5-2.9,7.5-10.5,7.9-7.6,10-10.3,7.7-10.3A18.119,18.119,0,0,0,323.4-794Z"/>
    <path id="Path_36" data-name="Path 36" class="cls-1" d="M718.3-765.1c-5.9,6.5-7.8,10.1-5.2,10.1a9.487,9.487,0,0,0,3.6-2c3.1-2.4,5.9-2.6,7.1-.3.6.9.8,5.1.5,9.2-.5,6.8-.3,7.8,1.5,9.5,2,1.8,2.2,1.7,9.9-1.9,9.3-4.4,11.3-6,11.3-9.2,0-3-2.2-3-9.5.3-3.2,1.4-6.4,2.3-7.1,2-1-.4-1.4-3.7-1.6-12.3-.3-10.9-.4-11.8-2.3-12C725.1-771.9,722.5-769.8,718.3-765.1Z"/>
    <path id="Path_37" data-name="Path 37" class="cls-1" d="M281.6-758.3c-.4,1,.3,2.7,2.1,4.6,4.1,4.3,15.5,12.7,17.3,12.7,2,0,15-12.5,15-14.4,0-2.8-3.2-1.7-8.1,2.9-2.6,2.5-5.3,4.5-5.9,4.5-2.2,0-5.6-2.3-10.2-7.1C286.8-760.2,282.8-761.5,281.6-758.3Z"/>
    <path id="Path_38" data-name="Path 38" class="cls-1" d="M270.6-742.7c-2.9,3.8-4.6,7.9-4.6,11.3,0,3.5,1.7,2.1,3.1-2.6a20.135,20.135,0,0,1,4-6.6c1.6-1.5,2.9-3.4,2.9-4.1C276-747.1,273.1-746,270.6-742.7Z"/>
    <path id="Path_39" data-name="Path 39" class="cls-1" d="M290-731.8a67.267,67.267,0,0,1-6.7,9.5c-3.5,4.2-5.1,5.3-7.4,5.3-4.2,0-6.6-1.5-7.4-4.7-1.6-6.6-4.5-6.5-4.5.2,0,3.6.5,4.8,3.1,6.9,5.2,4.4,11,3.3,18.3-3.4,4.3-4,9.6-13,9.6-16.3C295-737.4,292.4-736,290-731.8Z"/>
    <path id="Path_40" data-name="Path 40" d="M218.5-643.2c-13.6,4.7-22.2,12.4-30.8,27.5-3.4,6.1-8,13.1-10.3,15.6-3.7,4-4.7,4.6-9.5,5.1l-5.4.5-.3,4.2c-.5,6.4,3.9,13.7,10.2,17,2.1,1.1,4.3,1.3,7.9.9,4.8-.7,5.2-.5,8.7,2.9,5.1,5,9.6,5.5,18,2.1a46.155,46.155,0,0,1,6.6-2.3c.6.7-4,28.4-5.6,33.7-3.7,12.6-14.3,23.8-24.6,26.1a25.414,25.414,0,0,1-11,.1c-7.1-1.2-8.4-.4-9.1,5.9-.9,8.7,6.3,15.8,15.8,15.9,4.9,0,5.9.9,5.9,5.2,0,3.8,5,7.2,13.5,9.2,4.4,1,8.9,2.5,10,3.2,1.1.8,4.2,1.4,7,1.4,3.9,0,5.9.6,8.5,2.5,3.9,2.9,7.8,3.1,20.4,1.4,11.6-1.6,12.5-1.1,18,10.3,2.4,5.1,6.6,15.7,9.2,23.5,4.6,13.7,4.8,14.4,3.6,19.1-.7,2.6-1,5.5-.7,6.3.5,1.3,6.3,5.1,17.2,11.1,4,2.2,6.3,2.8,9.5,2.6,4.2-.3,4.3-.4,4.4-3.7,0-1.9.5-3.6,1.2-3.9,1.9-.6,1.4-3.7-1-5.9a43.279,43.279,0,0,0-6.5-4.2c-5.5-2.7-6.8-5.9-9.4-22.1-1.1-6.9-2.8-17.4-3.8-23.3l-1.8-10.9,2.6-1.6a16.112,16.112,0,0,0,3.9-3.1c4.2-5.2-3.6-22.5-16.1-35.4-3.2-3.3-5.7-6.5-5.7-7.2,0-1.2,5.1-8.1,40-53.5,19.2-25,17.5-23,18.9-23,1.7,0,10.5-4.6,11.8-6.2,1.6-1.9,2.6-9.5,1.4-10.2a1.741,1.741,0,0,1-.4-2.2c.4-1.2,0-1.4-2.3-.8-4.6,1.1-8.6,3.4-13.1,7.5-4.4,4.1-8.8,5.3-7.6,2.2.7-1.8-.7-1.3-3.8,1.4-2,1.7-29.3,6-47.4,7.4-11.5.9-14.7.9-17.9-.2-5.2-1.8-5.4-3.2-1.1-4.8,4-1.4,5.3-3.8,6.1-11.1.4-3.8.1-4.9-1.5-6.5-2.5-2.2-2.7-5.9-.5-11,1.4-3.5,1.4-4.1-.2-7.7-2.2-4.8-4.8-6.7-14.4-10.1C228.3-645.4,225.4-645.6,218.5-643.2Zm103.6,55.5c-1,.9-1.1.8-.5-.6.3-1,.9-1.5,1.2-1.2S322.8-588.4,322.1-587.7Zm-5.9,8.3c-2.2,3-14,18.6-26.2,34.6-24.6,31.9-23.1,30.8-25.6,19.9-1-4-1-6-.2-7.5,1.5-2.8,32.5-41.7,35-43.9a7.994,7.994,0,0,1,4.3-1.7,6.4,6.4,0,0,0,4-2c1.5-1.7,8.7-4.7,11.8-4.9C319.8-585,318.4-582.5,316.2-579.4Zm-23.1,7.6c-4.9,7.2-28.5,36.2-29.7,36.5-.6.2-1.6-1.6-2.3-3.9-2.2-8.3-5-22.2-4.5-22.9.2-.5,4.4-2,9.2-3.4a110.926,110.926,0,0,0,14.6-5.8c4.9-2.6,7.5-3.4,14.9-4.6C295.7-575.9,294.8-574.1,293.1-571.8Z"/>
    <path id="Path_41" data-name="Path 41" d="M831.5-630.4c-5.7,1.1-7.6,2.1-10.7,5.1-4.2,4.1-4.6,6.2-2.3,11.6,2.1,5.1,1.9,8.2-.9,11.2-2,2.1-2.3,3.3-1.8,7.3a31.2,31.2,0,0,0,1.7,7.8l1.3,3.2-8.6,2.6c-4.8,1.5-10.7,3.5-13.2,4.4-6.7,2.4-16.4,1.8-32.3-2.1-12-3-14.3-3.9-17.4-6.8-2.6-2.5-3.2-2.8-2.4-1.2,2.8,5.5.7,5.6-5.5.2a43.539,43.539,0,0,0-9.3-6.1c-2.5-1.1-5.4-2.5-6.3-2.9a10.95,10.95,0,0,0-2.1-.9c-.6,0-.7,12.3-.2,14.1.6,1.9,11.1,7.9,13.9,7.9,1.4,0,62.6,79.1,63.3,81.9.2,1-2.6,4.6-7.2,9.1-6.3,6.3-7.5,8-7.5,10.7,0,2.6.6,3.6,2.5,4.5,1.7.8,2.4,1.7,2,2.7-1.3,3.2-3.5,13.7-3.5,16.4a16.673,16.673,0,0,1-2,6.4,19.421,19.421,0,0,0-2,4.9,104.071,104.071,0,0,1-4.1,11.9c-3.8,10.4-4,11.1-2.8,15.8a37.516,37.516,0,0,1-1.7,20.4c-1.3,3.3-2.8,4.9-6.8,7.2a39.4,39.4,0,0,0-7.6,5.6l-2.5,2.7,2.3,1.9c1.3,1,2.1,2.3,1.7,2.9-.3.5-.1,1.9.6,3.1,1,2,1.7,2.1,7.8,1.7,7.5-.6,10.9-2,17.8-7.8,2.6-2.2,5.4-4.5,6.1-5.1a3.151,3.151,0,0,0,.7-3.3c-2.5-8.4-.5-19.3,4.3-22.4,1.3-.8,3.7-4.3,5.4-7.6a80.276,80.276,0,0,1,5-8.8c1-1.5,2.7-6.1,3.8-10.3,1.9-7.3,6.1-16.4,9.8-21.3l1.7-2.2,5.9,2a41.055,41.055,0,0,0,7.7,2c1,0,6.1-4.1,11.4-9.2l9.6-9.1-.3-4.6c-.3-3.9-.7-4.8-3.3-6.1l-3.4-1.7a49.506,49.506,0,0,1-1.7-8c-.7-4.3-1.8-10.3-2.5-13.4-1.2-5.2-1.1-5.9,1.1-10.3,1.8-3.8,2.1-5.6,1.5-8.9-.4-2.3-.9-5.6-1.2-7.4-.4-2.4.2-4.5,2.3-8,1.5-2.6,5.1-9.3,7.9-14.8,5-9.9,5.2-10,11.4-13,6.3-3.1,8.1-4.7,8.1-7.5,0-1.3-2.1-1.8-10.1-2.6-10.1-1.1-10.1-1.1-13.4-5l-3.3-3.9,4.5-.5c6.6-.7,7.9-2.8,12.4-20.3,1.3-5.1-1-13.9-4.5-17.4-1.4-1.4-2.6-3-2.6-3.5s-3-2.2-6.6-3.8C846.1-632.3,842.5-632.6,831.5-630.4ZM748.8-570a12.988,12.988,0,0,1,6.3,2.5,62.608,62.608,0,0,0,6.8,4.2c2.2,1.2,9.1,8.9,19,21.3,8.6,10.7,16.1,20.2,16.6,21s.8,4.6.6,8.4c-.2,5.7.1,7.2,1.8,9,2,2.1,2,6.6,0,6.6-1,0-9.5-10.7-33-41.5-22-28.8-25.7-34-23-32.6A12.193,12.193,0,0,0,748.8-570Zm25.3,11.5c2.1,1.9,8.1,5.5,13.2,7.9,5.2,2.5,9.9,5.2,10.6,6,1.3,1.6,2,19,.8,20.2-.5.5-2.2-.7-3.8-2.6-4.3-5.2-25.5-32.3-26.3-33.8C767.2-563.2,770.3-561.9,774.1-558.5Z"/>
    <path id="Path_42" data-name="Path 42" d="M514-477c-1.4.5-5.7,1.8-9.7,2.9-3.9,1.2-8.6,3.3-10.3,4.8-3,2.4-3.2,3-2.5,6.7.4,2.3.9,5.5,1.2,7.1a5.761,5.761,0,0,1-1.5,5.2c-1.6,1.9-1.8,3-1.1,7.5,1,6.5,2.4,7.9,9,8.9,6.3,1,6.9,1.5,7.6,6.7.5,3.6.2,4.4-3.6,8.5-5.5,6-9.2,7.5-22.7,9.7-12.2,2-13.4,2.4-13.4,4.6,0,2.3-1.4,1.6-3.5-1.9a16.394,16.394,0,0,1-2.1-6.7,51.076,51.076,0,0,0-.7-7.5c-.3-2.2-.4-3.2-.1-2.3.3,1,.9,1.8,1.4,1.8.4,0,.6,1,.4,2.2-.4,2.1-.4,2.1.6-.1,2.1-4.7,3-5.3,5.1-2.8l1.9,2.2.6-2.2c.3-1.3,1-2,1.5-1.7,1.8,1.1,2.3-2.9.5-4.1-1.4-1.1-1.5-1.3-.1-1.9,2.5-.9,1.8-3.8-.8-3.4a6.038,6.038,0,0,1-4.3-1.7c-1.9-1.8-1.9-1.8-2.2.3-.2,1.2-.8,2.2-1.4,2.2-.5,0-.7-.7-.4-1.7.4-1-.2-2.5-1.4-3.8l-2.1-2.2,2.2-.6c2.7-.7,1.9-3.3-1-3-1.3.2-2-.1-1.6-.7.9-1.4-2.4-2.5-3.7-1.2a2.22,2.22,0,0,1-2.8.2,3.123,3.123,0,0,0-3.1.1c-1.2.8-1.1,1.1.4,2.3s1.6,1.4.2,2c-2.2.8-1.9,3.6.5,3.6,1.1,0,1.7.5,1.5,1.2a3.333,3.333,0,0,0,.4,2.7c.8,1.2,1.2,1.2,2.5.2,2.4-2,2,.5-.4,2.9-1.1,1.1-2.6,1.7-3.4,1.4-1.9-.7-3,1.4-1.7,3,.9,1,.8,1.5-.4,2-1.9.7-2,3.6,0,3.6a1.538,1.538,0,0,1,1.5,1.5c0,2.1,2.9,1.9,3.7-.2.6-1.4.9-1.2,1.9,1.2.9,2,1.3,2.4,1.4,1.2,0-1,.5-1.5,1-1.2.6.3.9,3,.9,5.8l-.2,5.2-.7-4c-.5-2.8-.8-3.3-.9-1.4a7.018,7.018,0,0,1-2.1,4.4c-3.1,2.8-4.3,8.5-2.3,10.7,1.8,2,4.7,3.1,8.3,3.2,1.8.1,2.6.7,2.8,2.4a5.338,5.338,0,0,0,2.4,3.3c2.9,1.6,13.2.5,24.3-2.6,4.9-1.4,9.1-2.5,9.2-2.5,1,0-.2,4.2-2.8,10.3-4.4,10.1-10.4,18.7-20.3,29.4-8.8,9.3-10,11.7-6.7,12.8a13,13,0,0,1,4.4,3.4q2.55,3,4.5,2.4a6.048,6.048,0,0,1,6.8,3.9c1.3,4.4,3.4,5.8,8.6,5.8,4.8,0,5.7.7,3.7,2.7s-.2,3.9,5.4,5.7c6,1.9,6.7,3.1,6.7,12,0,5.1-.9,6.3-8.2,11.1-3.7,2.3-5.8,4.4-5.8,5.6,0,2,2.8,3.9,5.8,3.9,1.4,0,2.1.9,2.5,3,1,4.9,4.4,4.9,14,0,11.2-5.8,11-5.6,10.3-11-.5-4,.5-9.4,4-21.2.3-1,2-1.9,4.5-2.3,4.3-.7,9.5-3,10.5-4.7a1.965,1.965,0,0,0-.5-2.1c-1.9-1.9-1.3-2.4,3.2-3,3.2-.4,4.9-1.4,7.2-4.1,2.3-2.8,3.7-3.6,6.3-3.6,3.8,0,9.6-4.9,9-7.6-.2-.9-2.6-2.5-5.5-3.6-7-2.6-14.8-11-19-20.6-3.4-7.6-3.4-8.8,0-4.6,2.9,3.7,20.3,16.4,22.4,16.4,1.7-.1,6.4-7.9,6.3-10.6,0-.6-1.9-1.7-4.2-2.4-8-2.3-18.3-7.9-23.3-12.5-2.7-2.6-4.1-4.3-3-3.9s3.6,1.2,5.5,1.9c3.9,1.5,6,.5,6-2.5,0-1-1.8-4.4-3.9-7.6-2.2-3.3-4.3-7.2-4.6-8.7a8.041,8.041,0,0,0-3.1-4.3c-2.9-1.9-5.7-.6-8.4,3.8l-1.9,3.1-1.5-3.8c-2.1-5-4.6-12.3-4.6-13.5,0-.6,1.6-1,3.5-1,7.5,0,13.5-4.9,10.5-8.5-.8-1-.8-1.5.1-2,.8-.5.9-2.5.5-6.1-.5-4.1-.1-6.9,1.4-11.4,2.6-7.8,2.5-13.3-.4-19.7-3-6.4-8.5-10.6-17.4-13.3C522.4-478.1,518.1-478.4,514-477Zm-53.2,44.1c-.6.4-.7,1.7-.4,3,.7,2.3.7,2.3-.8.5a6.765,6.765,0,0,1-1.6-3.2,9.819,9.819,0,0,0-.7-3c-.6-1.6-.4-1.6,1.9.2C460.6-434.4,461.3-433.2,460.8-432.9ZM464-427a1,1,0,0,1-1,1,1.075,1.075,0,0,1-1-1,1,1,0,0,1,1-1A.945.945,0,0,1,464-427Z"/>
    <path id="Path_43" data-name="Path 43" d="M457.8-382.3c-.3.4-.2,3,.2,5.8l.6,5,.8-4.8c.5-3.1.5-5.2-.2-5.9C458.7-382.7,458-382.8,457.8-382.3Z"/>
    <path id="Path_44" data-name="Path 44" class="cls-2" d="M284.9-225.9c-.8,1.5-.8,1.9,0,1.5.6-.4,1.1-.2,1.1.3,0,.6-.7,1.1-1.5,1.1-1.9,0-2,3.4-.1,4.9,1.1.9,1.5.9,1.9-.1.4-.8.6-.7.6.4.2,3.1,2.5,1.9,4.6-2.3,1-2.3,2.5-4.3,3.2-4.6,2.2-.8,8.7,1.9,12.4,5.2a35,35,0,0,0,6.7,4.6c1.8.8,3.2,1.7,3.2,2.1,0,.3,2.2,2.4,4.8,4.5,4.6,3.6,4.8,4,4,7-.5,1.8-1.4,3.3-2,3.3s-.3.9.7,2c1.5,1.7,1.6,2,.3,2a4.347,4.347,0,0,1-2.8-1.5,3.674,3.674,0,0,0-2.9-1.4,16.094,16.094,0,0,1-4.1-.4c-1.4-.3-5.9-1.3-10-2.3a51.279,51.279,0,0,1-8.2-2.3c-.4-.4.3-2.8,1.7-5.3,3.1-5.9,3.1-6.8-.1-6.8-1.7,0-3.8,1.2-6,3.5-1.8,1.9-3.7,3.5-4.2,3.5-1.3,0-7.8,7.3-9.6,10.9A12.92,12.92,0,0,0,277-191c0,1.1-.6,2-1.3,2-3.7,0-6.4,7.4-3.2,8.6a2.528,2.528,0,0,1,1.5,2c0,.9,1.1,1.4,2.9,1.4,3.7,0,7.6-5.9,6.7-10.3-.7-3.3,2.5-7.2,6.8-8.3,1.4-.3,2.3-1,2-1.5-.7-1.2,2.8.1,4.8,1.8.9.8,2.2,1.2,2.7.8.6-.3,1.1-.2,1.1.2,0,.5,1.8.8,4,.6,2.2-.1,3.8.2,3.5.7-.3.4.3.6,1.2.4,1-.3,3.8.2,6.1,1,4.2,1.5,4.6,1.5,9.9-1,3-1.4,5.7-3.4,6-4.3A8.6,8.6,0,0,1,333-199a7.238,7.238,0,0,0,1.4-2.7c.6-1.9.4-2.2-1.1-1.6s-1.6.4-.6-.8c1.1-1.3.7-2.2-2-5.2-6.5-7.4-13.6-11.1-12.1-6.5.6,2,.5,2.1-1,.6a5.323,5.323,0,0,1-1.6-2.9c0-4.4-13.7-9.9-25-9.9C287-228,285.9-227.6,284.9-225.9Zm44.1,26c0,.5-.7.9-1.5.9-.9,0-1.2-.6-.9-1.5C327.2-202,329-201.6,329-199.9Z"/>
    <path id="Path_45" data-name="Path 45" class="cls-2" d="M728.5-211c-.5.5-2.7,2.4-4.7,4.4a23.181,23.181,0,0,1-5.7,4.1c-1.1.3-1.8,1.2-1.5,1.9.3.8-.7,1.8-2.6,2.6-3.2,1.3-6.6,5.5-3.5,4.4.8-.4,1.5-.1,1.5.5a1.018,1.018,0,0,1-.9,1.1c-.5,0-.7.8-.4,1.9.3,1.2-.2,2-1.6,2.4-4.7,1.2-.9,10.2,5.8,13.7,4.5,2.2,11.7,2.7,12.4.7.3-.9.9-.9,2.3-.1,2.5,1.5,14.2-2.6,16.9-5.9a19.985,19.985,0,0,1,5.5-4.2,28.216,28.216,0,0,0,4.8-3.2,24.67,24.67,0,0,1,4.3-2.8c3.2-1.7,4.1-6.1,1.4-7.1-1.5-.6-4.5,1.1-4.3,2.4.2,1.9-.3,3.2-1.3,3.2-.8,0-.7-.6.2-1.7,1.3-1.5,1.2-1.5-.8-.4-1.3.6-2.3,1.5-2.3,2,0,.4-1.8,1.4-4.1,2.1-4.5,1.5-5.8,3.3-3.9,5.5.9,1,.9,1.5.1,1.5a1.11,1.11,0,0,1-1.1-1.1c0-.5-.5-.7-1.2-.3-.8.5-.9.2-.5-.9.5-1.3.3-1.5-1.1-.8-3.3,1.7-16.1,5.5-16.7,5-1-1.1.7-4,2.1-3.5,2,.8,6.6-5.2,5.8-7.6-.4-1.4,0-2.1,1.5-2.5,1.2-.3,2.1-.9,2.1-1.4,0-.4,1.4-2.4,3-4.2,3.3-3.8,3.8-7.3,1.5-10.3-.8-1-1.5-1.5-1.5-1s-.7.3-1.5-.4c-1.1-.9-1.5-.9-1.5-.1,0,.7-.4.9-1,.6-.6-.4-.9,1.1-.7,3.9.1,2.4-.1,4.2-.5,4-.8-.5-2.3,3.5-2,5.3a.985.985,0,0,1-.9,1.3c-.7,0-3.9,2.8-7.1,6.2-4.2,4.4-5.5,6.3-4.6,6.9s.7,1-.7,1.5c-1.1.4-2.4.9-3,1.2-.5.3-.7.2-.3-.2.4-.5.3-1.9-.3-3.3a5.763,5.763,0,0,1,0-4.1,13.983,13.983,0,0,0,1.2-4.7,8.609,8.609,0,0,1,1.6-4.3,2.655,2.655,0,0,0,.6-2.8c-.3-.9,0-1.4.8-1.2a.878.878,0,0,0,1.2-1,.957.957,0,0,1,1-1.2c.7,0,2.3-1.3,3.5-3a10.812,10.812,0,0,1,4.7-3.6c1.4-.3,2.2-1,1.9-1.5C731.7-212.2,729.8-212.2,728.5-211Zm12,6c.3.5.2,1-.4,1a2.335,2.335,0,0,1-1.6-1c-.3-.6-.2-1,.4-1A2.039,2.039,0,0,1,740.5-205Zm-5.7,28.2a2.475,2.475,0,0,1-1.6,1.4c-.7.1-.8,0-.2-.3a.923.923,0,0,0,.4-1.4c-.3-.5,0-.9.6-.9C734.7-178,735-177.5,734.8-176.8Z"/>
    <path id="Path_46" data-name="Path 46" class="cls-2" d="M347.3-198.7a25.14,25.14,0,0,0-2.2,4.4,11.477,11.477,0,0,1-3.8,4.8c-1.6,1.1-2.2,2.2-1.8,3.4.4,1.4-.2,2.2-2.5,3.1s-2.9,1.7-2.4,2.9c1.3,3.1.5,5.6-2.7,8.3-1.7,1.4-2.8,3.1-2.5,3.7a3.2,3.2,0,0,1-.3,2.8c-.6,1-1.1,1.2-1.1.5a1.2,1.2,0,0,0-1.1-1.2c-.6,0-.8.9-.4,2,.4,1.2.2,2-.5,2s-1,.8-.7,2c.3,1.1.2,1.8-.3,1.5-.4-.3-1.3.2-2,1-1.1,1.3-.9,1.9,1.1,3.5,11,9.1,13.3,10.5,19.7,11.4,3.1.4,4.1.2,3.6-.6-.4-.7-.3-.8.4-.4,1.3.8,5.2-1,5.2-2.4,0-.6-.9-1-1.9-1-2.9,0-13.3-6.3-14.1-8.5-1.2-3.1,4.3-16.2,14.3-34.5,2.8-5.2,3.3-6.8,2.4-8C352.2-199.9,348.5-200.3,347.3-198.7Z"/>
    <path id="Path_47" data-name="Path 47" class="cls-2" d="M684.2-186.8c-1.8.5-3,1.3-2.7,1.8.4.6.1,1-.5,1-1.7,0-10.1,7.1-9.5,8,.3.5,0,1-.6,1.2s-1.1,2.4-1.2,5c-.3,7.8,5.8,11.8,10,6.5,1.4-1.8,2.9-2.4,6.3-2.5a63.462,63.462,0,0,0,8.1-.8c3.7-.6,7.9.8,7.9,2.6,0,.8-8.7,7.9-12.9,10.5A11.6,11.6,0,0,0,687-152a11.594,11.594,0,0,1-4,.9,10.3,10.3,0,0,0-5.2,1.8c-2.1,1.9-2.4,5.6-.5,7.1,1.3,1,5.1,0,6.1-1.7a1.674,1.674,0,0,1,2-.5,1.665,1.665,0,0,0,2-1.1c.4-1,1.2-1.5,2.1-1.1a1.742,1.742,0,0,0,2.2-1c.4-1,.8-1.2,1.2-.5.4.6,3-1.1,6.4-4.2,4.8-4.5,5.8-6,6.3-9.8.6-4.1.4-4.6-2.7-6.8-3.2-2.4-6.8-2.9-9.2-1.4a7.875,7.875,0,0,1-3.7.5,16.956,16.956,0,0,0-6.5,1.1c-6.8,2.4-9.6,1.2-7.5-3a12.455,12.455,0,0,0,1.2-4.8c-.2-1.7-.1-1.8.9-.4s1.8,1.2,6.6-1.4c3.7-2,6.4-2.8,8.4-2.5,4,.6,4.5-.7,1.4-3.6S688.6-187.9,684.2-186.8Zm-8.8,11.9c.3-.1.6.2.6.6,0,1.8-2.5.6-2.8-1.2-.2-1.5-.1-1.6.6-.7A2.54,2.54,0,0,0,675.4-174.9Z"/>
    <path id="Path_48" data-name="Path 48" class="cls-2" d="M381.3-162.9a31.552,31.552,0,0,1-6.4,2.9c-3.6,1.2-5.4,2.4-5.3,3.4s-.6,1.6-1.8,1.6c-1.4,0-1.8.5-1.4,1.6.4,1,.1,1.4-.6,1.2-1.6-.6-3.8,3.6-3.8,7.2,0,3.9.9,6,2.7,6,1,0,1.3.6.9,1.6-.9,2.4,1.2,5.4,4.9,7,7.5,3.1,21.4.8,21.5-3.6,0-.8,1.6,1.1,3.4,4.4,3.4,5.8,10.2,11.6,13.9,11.6,2.1,0,2.3-2.8.2-3.7-.9-.3-2.3-2-3.2-3.7-2-3.8-4.4-13.6-3.7-14.8.4-.5-.2-1.6-1.2-2.3-1.5-1.2-1.6-1.7-.6-2.3,1-.7,1-1.8,0-5.7-1.6-6.1-7.5-12.6-10.7-11.8a10.036,10.036,0,0,1-5-.5C383.4-163.4,381.9-163.5,381.3-162.9Zm10.2,6.9c4.5,1.7,4.6,6.4,0,11.8-1.4,1.7-2.5,3.8-2.5,4.7,0,1-.5,1.5-1.3,1.2-.7-.3-3,.3-5,1.3s-3.7,1.4-3.7.8c0-.5-1-.8-2.2-.6-2.7.4-8.2-4.6-7.4-6.7a1.718,1.718,0,0,0-.4-2c-1.8-1.1-1-2.5,1.4-2.5,1.6,0,3.4-1.2,5-3.2A14.424,14.424,0,0,1,391.5-156Z"/>
    <path id="Path_49" data-name="Path 49" class="cls-2" d="M484-163c-1.2.7-1.5,4.5-1.7,20-.2,10.5-.7,21.6-1.1,24.6-.6,3.8-.6,5.4.2,5.4.6,0,.5.4-.3.9-1.5,1-.8,4.1.9,4.1.6,0,.8-.6.4-1.3-.6-1-.4-1,.7,0,2,1.9,7.3,1.6,9.2-.5,1.6-1.7,1.5-1.9-1.8-3.2s-3.9-3-.9-3c.8,0,1.2.4.9,1-1.2,1.9.7,1,2.6-1.3,1-1.2,1.8-1.6,1.9-1,0,1.8,4-2.3,4-4.1,0-2,2.1-3.1,3-1.6.5.8,1.4.2,3-2.1l2.3-3.2,2.2,2.7a6.656,6.656,0,0,1,1.7,5.2c-.3,1.9,0,2.6,1.7,3.1a2.635,2.635,0,0,1,2.1,2.4c0,1.1.5,1.8,1.2,1.7.6-.2,1.4.7,1.7,2s1,2.3,1.5,2.2a1.659,1.659,0,0,1,1.5.8c1.4,2.1,4.8,2.2,7.4.1,1.5-1.1,2.7-2.5,2.7-3,0-1.9-4.4-5.9-6-5.4a2.933,2.933,0,0,1-3-1c-1-1.2-.9-1.5.6-1.5,1.8-.1,1.8-.1,0-1.5a6.665,6.665,0,0,1-2.3-3.7c-.8-6.7-1.5-8.8-3.1-9.7-.9-.6-1.2-1.1-.5-1.1,2,0,.2-3.1-2.4-4.1-1.9-.7-3.1-.5-5.3,1.1a10.626,10.626,0,0,1-3.8,2,4.018,4.018,0,0,0-2.2,1.6,88.629,88.629,0,0,1-7.1,5.9l-5.7,4.4.2-8.3c.2-4.6.6-8.8,1-9.4s.2-2.1-.4-3.3c-.7-1.2-.9-3.7-.5-6,.5-2.6.3-3.9-.4-3.9-.8,0-.9-.6-.1-1.9C492.7-162.1,488.8-166.1,484-163Zm26,27.5a1.538,1.538,0,0,1-1.5,1.5c-2.6,0-1.8-2,1.3-2.9C509.9-137,510-136.3,510-135.5Z"/>
    <path id="Path_50" data-name="Path 50" class="cls-2" d="M638-160.1a5.27,5.27,0,0,0,0,4.6c.6,1.5,1.1,5.5,1.3,9,.1,4.8-.2,6.7-1.6,8.2-.9,1.1-1.4,2.3-1,2.8.5.4.3.5-.3.2-.6-.4-2.5.9-4.3,2.8-1.7,1.9-3.9,3.5-4.9,3.5a4.688,4.688,0,0,0-2.9,1.1c-.8.8-1.6.4-2.8-1.5-1-1.4-2.1-2.4-2.5-2.1-.5.3-.7-.7-.6-2.2.2-1.6-.2-3.2-.8-3.6-.8-.6-.8-1,.2-1.4,1.5-.6,1.5-2.7,0-7-.7-1.9-1.7-3.2-2.4-2.9s-2.7-.3-4.6-1.2c-5.5-2.8-6.3-2.4-6.6,3.8-.4,7,.5,12,2.2,12,.8,0,1.7,1.6,2,3.5.4,2,1.1,3.3,1.6,3a.816.816,0,0,1,1.2.2c.1.5,1.8,1.9,3.7,3.2,2.9,2,4.2,2.3,9.3,1.8,4.9-.4,6.4-1,8.8-3.6,1.6-1.7,2.7-3.7,2.4-4.5a1.781,1.781,0,0,1,.5-2.1c.6-.3,1.1-.1,1.1.4,0,.6.7,1.1,1.5,1.1,1.1,0,1.4-.7,1-2.3a9.478,9.478,0,0,1,.3-4.7l1-2.5.7,2.7c.4,1.5.4,3.2,0,3.7-.3.6-.2,1.1.4,1.1s.8.6.5,1.4c-.3.9.8,1.7,3.5,2.4,3.6.8,4.1.8,4.1-.7,0-1.3.2-1.3.9-.2.5.8,1.1.9,1.5.3.3-.5-.1-1.2-.9-1.6-1.7-.6-2.1-3.6-.5-3.6a2.016,2.016,0,0,1,1.6,1.4,1.984,1.984,0,0,0,2.5.9,4.243,4.243,0,0,1,3.3.6c1,.9,1.7.6,3-1.5,1-1.4,1.5-3.2,1.2-4-.4-.9-.2-1.2.5-.8s.9-.1.5-1.7c-.3-1.3-.3-1.8,0-1.2.8,1.8,2.4,1.6,2.4-.2,0-1.9-.8-1.9-5.5.1-6.5,2.7-9.5,2.6-10.6-.2a16.884,16.884,0,0,1-.9-4.7c.1-2.2.1-2.2,1.5-.3,1.4,1.8,1.5,1.6,1.5-2.6s-2.8-9.7-4.2-8.2c-.3.3-1.5-.6-2.6-2C642.8-162.5,639.5-162.8,638-160.1Zm9,7.1c0,.5-.2,1-.4,1-.3,0-.8-.5-1.1-1-.3-.6-.1-1,.4-1A1.028,1.028,0,0,1,647-153Zm-37.5,11.9a1.216,1.216,0,0,1-.5,1.6c-.5.3-1-.1-1-.9C608-142.2,608.6-142.5,609.5-141.1ZM607-138a1.1,1.1,0,0,1-1.1,1c-.5,0-.7-.5-.4-1,.3-.6.8-1,1.1-1C606.8-139,607-138.6,607-138Zm4.5.9a11.529,11.529,0,0,1-3.5,1.6c-2.4.7-2.4.7-.5-.9C609.6-138,613.1-138.7,611.5-137.1ZM616-136c.8.5,1.1,1.2.8,1.6-1,.9-3.8-.3-3.8-1.6C613-137.2,614-137.3,616-136Z"/>
    <path id="Path_51" data-name="Path 51" class="cls-2" d="M429.2-146.8c-1.4,1.8-3.2,8.7-3.2,12.5a10.955,10.955,0,0,0,2.6,6.3c2.9,3.4,7.9,6.4,9.3,5.5.5-.3,1.1,0,1.3.7.5,1.5,13.2,4.1,13.6,2.8a1.5,1.5,0,0,1,1.4-1,5.775,5.775,0,0,0,2.5-1.5c3.8-3.8,6.9,1.7,5.7,10-.9,6.6-3.5,14.9-5.2,16.9a36.776,36.776,0,0,1-7.2,4.5c-3.1,1.5-6,3.7-6.7,5.1-.9,1.8-1.3,2-1.3.8,0-1.8-2.7-1.4-4.3.6-.6.7-.7.4-.4-.6.5-1.3,0-1.6-2.1-1.4-1.5.1-2.6.7-2.5,1.2.3,1.5-2.9,1.3-4.5-.3-1.9-1.8-6.8-1.7-7.6.3-.9,2.3.2,3.4,3.5,3.4,1.6,0,2.9.4,2.9.9,0,.4-1.2.7-2.7.5-2.8-.4-2.8-.4.2.7A12.288,12.288,0,0,1,428-77a8.776,8.776,0,0,0,2.3,1.3,2.589,2.589,0,0,1,1.7,2.2c0,1.3.4,1.2,2.1-.4a5.876,5.876,0,0,1,5.3-1.5c2.4.4,2.8.3,1.6-.5-1.3-.9-1.3-1.2-.1-2,2.3-1.5,4.2-.2,3.1,1.9-.9,1.6-.7,1.8,1.1,1.5a7.2,7.2,0,0,0,3.6-2.4,17.694,17.694,0,0,1,5.3-4.2c2.2-1.3,4-2.8,4-3.5a2.136,2.136,0,0,1,1.4-1.7c.9-.4,1.2-1.4.9-2.6s-.1-2.1.5-2.1c.5,0,1.9-1.5,3.1-3.3,1.1-1.7,2.7-4.1,3.5-5.2a21.887,21.887,0,0,0,2.1-6.8c.5-4,.3-4.8-1.2-5.5-2.1-.8-3-3.3-1.1-3a3.9,3.9,0,0,1,2,1.3c.5.6.8.4.8-.6a4.4,4.4,0,0,0-1.2-2.7c-.9-.9-.8-1.2.5-1.2a1.636,1.636,0,0,0,.5-3.2c-.8-.3-.4-1.2,1-2.6,1.9-1.9,2.1-2.9,1.6-6.5-.7-4.7-2.8-7.7-5.4-7.7-1.6,0-3.5,3.8-2.5,4.9.3.2.5-.1.5-.7,0-.7.4-1.2.9-1.2s.7.9.4,2c-.5,1.9-3.9,3.7-5,2.6-.6-.6-7.6,2.9-10.4,5.1-1.1.9-2.4,1-4.6.4-1.7-.5-3.3-.7-3.6-.5-.2.2-1.4-.7-2.7-2.1-2-2.1-2.3-3.4-2.1-9.4.2-6.4,0-7-2.5-9C432.3-148.3,430.7-148.5,429.2-146.8Zm2.3,4.9c1.1,1.7-.1,2.1-1.5.4-.8-.9-.8-1.5-.2-1.5A2.173,2.173,0,0,1,431.5-141.9Zm39,7.9c.3.5.1,1-.4,1a1.1,1.1,0,0,1-1.1-1c0-.6.2-1,.4-1C469.7-135,470.2-134.6,470.5-134Zm-9.7,8.3c.2,1-.3,1.7-1.2,1.7-1,0-1.6-.9-1.6-2.1C458-128.5,460.3-128.2,460.8-125.7Z"/>
    <path id="Path_52" data-name="Path 52" class="cls-2" d="M554.2-144.3a1.1,1.1,0,0,0-.6,1.5c.4.6.3.8-.3.5-1.6-1-8.8,3.1-11.3,6.6-1.2,1.7-1.7,2.6-.9,1.9,2-1.9,3.1-1.4,1.9.9-.7,1.1-1.8,1.8-2.5,1.5-1-.3-1.5,1.1-2,5.8a41.927,41.927,0,0,0-.3,8.2c.4,2.2,6,5.3,6.6,3.6.2-.7,2.1-.1,4.9,1.4,5.3,2.8,12.3,3.3,12.3.9,0-.8.5-1.5,1.1-1.5s.9.7.5,1.5c-.4,1.1.1,1.5,1.9,1.5s2.3-.4,1.8-1.6a2.183,2.183,0,0,1,.8-2.5c2.1-1.3,2.9-1.1,2.9.8,0,1.4.2,1.5.9.4.6-.9,1.1-1,1.5-.2,1.5,2.4,15.2-3.9,14.2-6.5-.3-.8,0-1.4.7-1.4.8,0,.6-.4-.3-1-1.1-.7-1.2-1-.2-1,4.3,0,8.2-11.6,5-14.8-1.6-1.6-2.8-1.5-2.8.2a3.853,3.853,0,0,1-1.3,2.4c-1,.8-1.3.5-1.5-1.6-.3-3.7-1.9-5-8.1-6.6-3.9-1-6.2-1.1-8.3-.4a15.083,15.083,0,0,1-6.4.5c-2.4-.4-3.4-.2-3.4.7,0,2,1.2,2.7,2.7,1.4,1.1-.8,1.8-.6,3.4,1,1.3,1.5,3.2,2.2,5.8,2.2a13.716,13.716,0,0,1,7.5,2.5c2.1,1.4,3.4,2,3,1.3s-.3-1,.1-.5c.5.4,1,2.8,1.1,5.2.3,3.8,0,4.5-1.6,4.5a5.863,5.863,0,0,0-3.7,2.3c-3.8,4.7-7.2,6.5-13.5,7.1-7.6.7-13.2-.5-16.4-3.5-2-1.9-2.4-3.2-2.2-6.6.1-3.8.8-4.9,4.8-8.6a51.348,51.348,0,0,1,6.6-5.3C561.9-141.6,558-145.9,554.2-144.3Z"/>
  </g>
</svg>
