<svg id="Layer_1" data-name="Layer 1" xmlns="http://www.w3.org/2000/svg" viewBox="0 0 210.53 74.76"><defs><style>.cls-1{fill:#983acc;}</style></defs><title>title</title><path class="cls-1" d="M227.07,356.26a1.17,1.17,0,0,1,0,.5.87.87,0,0,1-.39.28.76.76,0,0,0-.4.31c0,.11,0,.16,0,.17s.06,0,.12-.07.26-.13.31,0a3.23,3.23,0,0,0-.51,1.88,11.21,11.21,0,0,1-1,.9,6.74,6.74,0,0,0-1,1l-.27-.27a2,2,0,0,1-.27.6q-.09,0-.36.12c-.12.08-.2.05-.23-.1a4,4,0,0,1-3.82,1,5.08,5.08,0,0,1-3-2.6,8.75,8.75,0,0,1-1.11-4.72,8.1,8.1,0,0,1,1.81-4.92,3,3,0,0,1,2-.86c0-.07-.15.14-.55.66a12.88,12.88,0,0,0-1.62,5,4.2,4.2,0,0,0,1,3.39,3.47,3.47,0,0,0,2.77.93,7,7,0,0,0,3.18-1,6.35,6.35,0,0,0,2.39-2.35,4.36,4.36,0,0,0,.47-3.31l.28-.38a3.85,3.85,0,0,1,.3-.33,3.05,3.05,0,0,1,.37,2,20.92,20.92,0,0,0-.13,2.27c-.15,0-.21-.1-.18-.27s0-.29-.12-.31A1.33,1.33,0,0,0,227.07,356.26Zm-9.36,3.4a3.73,3.73,0,0,1-.3-.29,2,2,0,0,0-.23-.22.92.92,0,0,0-.65-.16,1.48,1.48,0,0,0,.27.92.64.64,0,0,0,.68.26Zm-1.71-2c.11,0,.15,0,.11.11-.28.43-.41.57-.39.43.14.1.29.07.45-.1l.19-.24a1.41,1.41,0,0,1,.19-.21.31.31,0,0,1-.31-.19,1.2,1.2,0,0,1,0-.42c0-.43-.08-.69-.32-.77,0,.15-.06.36-.09.65a4.09,4.09,0,0,1-.11.66C215.75,357.64,215.85,357.66,216,357.63Zm8.89,1.34-.17.35a.4.4,0,0,1,.26.15.76.76,0,0,0,.17.2A.5.5,0,0,0,224.89,359Zm1.07-1.19-.35.73c-.09.27-.08.45,0,.54A1.3,1.3,0,0,0,226,357.78Z" transform="translate(-215.09 -288.61)"/><path class="cls-1" d="M229.54,344a1.14,1.14,0,0,1,.15-.23.29.29,0,0,1,.5,0,.51.51,0,0,0,0,.69,1.26,1.26,0,0,1,.31.68c.43-.22.71-.15.83.21.16-.19.2-.36.1-.52s-.13-.34-.06-.46c-.14.14-.25.15-.34,0s-.21-.19-.31-.12c.09.13.2,0,.3-.46a2.23,2.23,0,0,0,.52.31,1,1,0,0,1,.39.31,2.93,2.93,0,0,0,.55-.35,2.25,2.25,0,0,1,.48-.29.74.74,0,0,1,0-.51l.26-.61c.22.28.43.21.64-.21a4.67,4.67,0,0,1,.64.28.84.84,0,0,0-.24-1.18,3.77,3.77,0,0,0,.55-1.11c.16-.12.29-.14.41,0,.41-1.42.67-2,.74-1.81.17-.25.33-.29.49-.14a.34.34,0,0,0,.1-.4c-.06-.15,0-.29.16-.43a.15.15,0,0,0,.24,0c.33.81.57,1.33.68,1.56a6.25,6.25,0,0,0-.6,1.31,1.2,1.2,0,0,1-.78.83c0,.07,0,.13.05.2l.1.07.08.08a.26.26,0,0,0-.33,0,1.23,1.23,0,0,0-.22.34,4.11,4.11,0,0,1-.24.37.3.3,0,0,1-.31.1c-.11.11-.14.2-.1.29s.11.2.1.22-.1,0-.19,0-.16,0-.2,0,0,.08,0,.1l.13.05c.12.05.13.15,0,.3s-.16.21-.27.16-.24-.09-.28-.06q-.08.31.15.3c.17,0,.26.05.26.15s-.13.08-.24,0-.19-.06-.24,0a1,1,0,0,0-.09.4.63.63,0,0,1-.12.43c-.05,0-.13,0-.24.05a.17.17,0,0,1-.24-.06c0,.26-.13.47-.47.66-.14.07-.23.13-.25.18s0,.14.13.24c-.41.06-.74.5-1,1.31a1.35,1.35,0,0,0-1,.14q-2.1-1.26-4.85-3.25l-2.21-1.63c-.87-.65-1.55-1.16-2.07-1.53a2.1,2.1,0,0,1,.72-1.23,1.82,1.82,0,0,1,2.17-.08,1.38,1.38,0,0,1,.57.92.46.46,0,0,0,.41-.26.67.67,0,0,0,.49.33.34.34,0,0,0-.11.37.36.36,0,0,1,0,.29c.09.08.25.06.45-.07s.35-.12.45,0a.27.27,0,0,1-.12.26,1.88,1.88,0,0,0-.29.16.75.75,0,0,0,.09.4c-.15,0,0-.2.32-.48a2.7,2.7,0,0,0,.42.64,1.87,1.87,0,0,0-.16.37.39.39,0,0,1-.24.23.7.7,0,0,0,.55-.22q.33-.3.18-.51c.09-.07.17-.07.22,0a1.09,1.09,0,0,1,.1.27c.08.28.22.36.42.23.08.1,0,.19-.1.28s-.26.08-.31,0c0,.08,0,.17.1.27a.21.21,0,0,1,0,.31.7.7,0,0,0,.32-.18l.31-.25a.48.48,0,0,1,.29.51.78.78,0,0,0,.07.58Zm4-1c0,.12.1.18.28.19a.6.6,0,0,0,.44-.17A.55.55,0,0,0,233.56,343.07Z" transform="translate(-215.09 -288.61)"/><path class="cls-1" d="M241,320a1.16,1.16,0,0,1,.34.7,17.3,17.3,0,0,1-2.08,2.44,16.71,16.71,0,0,0-1.69,1.92c-.1-.05-.1-.13,0-.26s.1-.21,0-.26a1.43,1.43,0,0,0-.29.72,2.39,2.39,0,0,1-.22.71,7.22,7.22,0,0,1,.72.81,4.88,4.88,0,0,0,.79.79c.18-.17.69-.73,1.57-1.65a12.4,12.4,0,0,1,1.57-1.44,1.5,1.5,0,0,0,1.07.93,2,2,0,0,1-.64,1.73l-.81.82a9.45,9.45,0,0,0-.86.92c.1.07.31.25.64.52a3.91,3.91,0,0,0,.63.49,1.38,1.38,0,0,0,1.36.2c0,.07-.1.22-.3.44s-.24.33-.16.42a13.25,13.25,0,0,0,1.69-1.78,14,14,0,0,1,1.77-1.84,4.41,4.41,0,0,1,.69-.39,1.46,1.46,0,0,0,.58-.45,1.29,1.29,0,0,1,.67.92c0,.13.06.31.09.53a2.63,2.63,0,0,0,.06.43c-1.38,1.6-2.37,2.75-3,3.4-1.42,1.44-2.53,2.14-3.37,2a49.67,49.67,0,0,0-4.21-3.41,20.63,20.63,0,0,1-4-3.72,13.88,13.88,0,0,1,2.85-4,23.57,23.57,0,0,1,4-3.3Z" transform="translate(-215.09 -288.61)"/><path class="cls-1" d="M262.13,314.75a1.5,1.5,0,0,1,.06.16.42.42,0,0,1,.06.21c.11.09.19.05.25-.14s.05-.15.07-.16.06,0,.11,0a.49.49,0,0,1,.27.59,3.47,3.47,0,0,1-.08.4,2.79,2.79,0,0,0-.08.35s.11,0,.21,0l.13-.08.13-.08a4.73,4.73,0,0,1-.25,1.22c0,.07.11,0,.26,0s.2-.05.22.09a.47.47,0,0,1-.51.18,1.11,1.11,0,0,1-.55-.21.82.82,0,0,1,.26-.29c-.06-.08-.17-.09-.32,0l-.42.27a.18.18,0,0,1-.05-.24c.06-.11.08-.18.05-.23a.82.82,0,0,1-.8.08,3,3,0,0,0-.91-.14.17.17,0,0,1-.06-.24c.06-.11.07-.19,0-.23-.2.29-.4.34-.59.15a.79.79,0,0,1-.22-.68.26.26,0,0,0-.16.3.27.27,0,0,1-.21.31,1.22,1.22,0,0,0-.29-.18,2.42,2.42,0,0,1-.29-.17,1.39,1.39,0,0,1-.52-.58,7.86,7.86,0,0,1-.61.63q-.42.33-.72.18a4.36,4.36,0,0,1-2.12,2.17,5.69,5.69,0,0,0,0,1.45c.11.75.17,1.24.18,1.46a3.44,3.44,0,0,1-1.35,2.9,1.67,1.67,0,0,0-.77-.14,18.1,18.1,0,0,1-1.37-7c-.08-3.92,0-6.28-.09-7l.24-.17a7.58,7.58,0,0,1,4.44.6,39,39,0,0,1,4.22,2.26l.55.3.51.27a1.37,1.37,0,0,1,.66.68.43.43,0,0,1,.33.16.85.85,0,0,0,.27.29C262.18,314.5,262.11,314.64,262.13,314.75Zm-6.81.85.6-.57a6.06,6.06,0,0,1,.52-.45,4,4,0,0,0-1.11-1,3.64,3.64,0,0,0-1.47-.56,12.73,12.73,0,0,0,0,1.76c0,.88.08,1.46.08,1.75A4,4,0,0,0,255.32,315.6Zm.75.7c-.33.2-.41.39-.25.55C256.14,316.65,256.23,316.47,256.07,316.3Z" transform="translate(-215.09 -288.61)"/><path class="cls-1" d="M273.3,304.89a.48.48,0,0,1,0,.51.56.56,0,0,0,.06.54.78.78,0,0,0-.37.2,1.17,1.17,0,0,1-.29.21,1.85,1.85,0,0,0-1.32-.52,2,2,0,0,1-1.34-.51,3.57,3.57,0,0,1-1.23-.37,2.35,2.35,0,0,0-1.3-.24s.07.14.26.33a.49.49,0,0,1,.19.55.82.82,0,0,1-.78-.55c-.2-.4-.44-.59-.72-.58-.09.12-.07.25.07.4a.88.88,0,0,0,.17.17.58.58,0,0,1,.14.14.43.43,0,0,0-.32.29.61.61,0,0,0,.05.41.88.88,0,0,0,.26.36.39.39,0,0,0,.33.11.36.36,0,0,0-.06.45,2.75,2.75,0,0,0,.41.33,1,1,0,0,1,.37.32q.09.19-.21.42l.4.32a.46.46,0,0,1,0,.46c0,.06.12.05.26,0a.45.45,0,0,1,.29-.05c0,.1,0,.16-.16.2l-.3,0a11.71,11.71,0,0,1,1,1.26,2.5,2.5,0,0,0,1.31,1c-.48.43-.73.76-.75,1,.05,0,.09.06.11,0a.35.35,0,0,0,.05-.12c0-.15.12-.24.23-.25s0,.29.09,1a3.16,3.16,0,0,1-.44.15,2.33,2.33,0,0,0-.36.13.5.5,0,0,0-.3.53c-.71-.09-1.34-.66-1.87-1.71a23.79,23.79,0,0,1-1-2.7A.35.35,0,0,0,266,309a.34.34,0,0,1-.27-.08,42.3,42.3,0,0,1-3.22-5.46,4.06,4.06,0,0,1,3.89-1.28,15.61,15.61,0,0,1,2,.42,16.28,16.28,0,0,0,1.66.4.79.79,0,0,0,.6.62,1,1,0,0,1,.73.62.19.19,0,0,0,.06-.23q-.06-.18,0-.24.31,0,.54.51c-.23.07-.35.18-.36.34a.25.25,0,0,0,.21.28c.19-.12.21-.27.06-.47.26.06.43.05.51,0a.93.93,0,0,1,.37-.26C272.8,304.81,273,305.07,273.3,304.89Zm-7.5,1.39a.87.87,0,0,0,.25.37.48.48,0,0,1,.13.33.39.39,0,0,0,.15-.46c0-.22,0-.37.1-.46A1.12,1.12,0,0,0,265.8,306.28Zm.54.73a3.14,3.14,0,0,0,1.22,1.71c.08-.24,0-.53-.34-.89a1.71,1.71,0,0,1-.48-.92A1,1,0,0,1,266.34,307Zm2.89,5.31a.25.25,0,0,0,.15-.19.72.72,0,0,0-.05-.23.53.53,0,0,1,0-.22q0-.12.21-.18c-.05,0-.13-.11-.26-.29a.23.23,0,0,0-.36,0C269.06,311.81,269.18,312.2,269.23,312.32Zm.37-3.88c-.05-.1,0-.17.16-.21l.29,0s0,.13.07.4a.18.18,0,0,1-.28,0Q269.71,308.38,269.6,308.44Zm.75.61a.43.43,0,0,1,.11.3.73.73,0,0,0,.05.28.68.68,0,0,1-.5-.4Zm9.32-1.93c0,.1.08.15.22.15s.2.07.19.22a1.66,1.66,0,0,0-1,.23,1.51,1.51,0,0,0-.67.65.65.65,0,0,1-.34.06,1.06,1.06,0,0,0-.3,0s0-.13-.05-.41c.38-.08-1-.61-4.21-1.38a1.82,1.82,0,0,1,0-.4c0-.11-.06-.21-.21-.29.36-.13.47-.29.35-.49.08,0,.22.1.42.32s.41.21.72,0a3.8,3.8,0,0,1,.16.56.38.38,0,0,0,.37.29.37.37,0,0,1,.13-.33c.09-.06.2,0,.33.13a.49.49,0,0,0,.19-.33c0-.17,0-.24-.16-.23a.37.37,0,0,0,.35-.24,1,1,0,0,0,0-.46c0-.17-.07-.33-.1-.5a.33.33,0,0,1,.09-.33,1,1,0,0,1-.51-.86.2.2,0,0,1,.25,0,.2.2,0,0,0,.22.09s-.08-.13-.27-.29a.74.74,0,0,0-.52-.23.72.72,0,0,1,.06-.66.51.51,0,0,0,0-.55.45.45,0,0,1,.22,0,.41.41,0,0,0,.22,0,.34.34,0,0,0-.18-.39,1.18,1.18,0,0,1-.41-.33,5.25,5.25,0,0,0,.43-.8.59.59,0,0,0-.23-.77c-.69-.1-.75-.25-.19-.46a.58.58,0,0,0,0-.57c-.11-.22-.32-.27-.62-.15a1,1,0,0,0,.19-.61,2,2,0,0,1-.85,0c-.4,0-.63,0-.68.18s-.18,0-.22-.11a1,1,0,0,0-.11-.29,10.48,10.48,0,0,0,1.49-.32,4,4,0,0,0,1.35-.74,2.05,2.05,0,0,0,.39.45c.24.23.38.38.44.45a1.1,1.1,0,0,1,.26,1.12.5.5,0,0,1,.52.46.93.93,0,0,1-.16.78c.1.18.41.69.91,1.51a18.6,18.6,0,0,1,1,1.81A5.1,5.1,0,0,1,279.67,307.12Zm-2.85-.33c0-.06,0-.16.07-.3a.25.25,0,0,0-.07-.34c-.15,0-.22.16-.19.38S276.72,306.82,276.82,306.79Zm-.39-3.81a.59.59,0,0,0-.41-.43c-.22-.1-.38-.08-.46.05A2.06,2.06,0,0,0,276.43,303Zm-.85-1.68c.06.22.26.24.6.07C276.12,301.14,275.92,301.12,275.58,301.3Zm1.26,1a.52.52,0,0,0-.27-.41l-.2-.08a1.09,1.09,0,0,1-.19-.1A.58.58,0,0,0,276.84,302.28Z" transform="translate(-215.09 -288.61)"/><path class="cls-1" d="M314.78,296.08a15.18,15.18,0,0,1,.64,1.41.43.43,0,0,0-.28.46.62.62,0,0,1-.28.61.77.77,0,0,1-.4,0,.94.94,0,0,0-.32-.05c0-.09.06-.12.21-.12h.38c0-.24-.19-.36-.49-.35a.53.53,0,0,0-.39.27.5.5,0,0,1-.43.24c0,.27.24.45.62.54.2,0,.3,0,.29-.13s0-.17.05-.17h.31q.15,0,.18.09c0,.13-.09.21-.29.25a1.08,1.08,0,0,0-.41.16c.19.1.22.23.1.38a1.22,1.22,0,0,0-.3.49,9,9,0,0,1-3.41,1.08,7,7,0,0,1-3.74-.49,6.68,6.68,0,0,1-1.12-.72,2.37,2.37,0,0,1-.73-.68c-.11-.42.08-.79.6-1.11a1.55,1.55,0,0,1,1.55-.11.29.29,0,0,1-.05.23.24.24,0,0,0,0,.26.31.31,0,0,0,.29-.13.29.29,0,0,1,.29-.13,2.14,2.14,0,0,0-.1.22c0,.12,0,.17.14.16,0,.07-.14.12-.31.15a3,3,0,0,0-.38.11c.15.21.35.21.62,0l.3-.22a.25.25,0,0,1,.26,0,1.11,1.11,0,0,1-.22.22,1.11,1.11,0,0,0-.22.22s.13,0,.32-.09a1,1,0,0,1,.62-.11,1.77,1.77,0,0,0,1.26.45,3,3,0,0,0,1.42-.36,2.22,2.22,0,0,0,1-.93,1.22,1.22,0,0,0-.08-1.25.5.5,0,0,1-.43-.14.86.86,0,0,0-.58-.18.42.42,0,0,0-.09-.31.18.18,0,0,1,.05-.26c-.08,0-.16.08-.22.21s-.18.16-.37.13a.56.56,0,0,1,.13-.33.37.37,0,0,0,.07-.36c-.31,0-.46.17-.46.42-.66-.13-1-.38-1.18-.76a1.24,1.24,0,0,1-1,0,2.23,2.23,0,0,0-1-.18,4.19,4.19,0,0,0-1.18-.77,11.3,11.3,0,0,1-1.26-.67,3.2,3.2,0,0,1,.17-2.36,4.23,4.23,0,0,1,1.76-1.75,7.76,7.76,0,0,1,2.86-.9,9.66,9.66,0,0,1,3.38.18,3.59,3.59,0,0,0,1.15.8,11.2,11.2,0,0,1,1.26.71,1.68,1.68,0,0,0-.44.82,5.91,5.91,0,0,1-.27.92,1,1,0,0,1-.65,0,.58.58,0,0,0-.49,0q-.22,0-.21-.12a.65.65,0,0,1,0-.1c0-.06,0-.11,0-.15l-.64,0a3.18,3.18,0,0,0-1.11-.94,2.37,2.37,0,0,0-1.78-.1.18.18,0,0,1-.22-.11.22.22,0,0,0-.2-.14c-1.1.38-1.71.91-1.82,1.57s.29,1.2,1.23,1.63a3.6,3.6,0,0,0,.65.14,2.3,2.3,0,0,1,.63.13.73.73,0,0,1,.22.16l.1.1c.06,0,.2,0,.44-.13.08.06.11.11.08.16a.31.31,0,0,0-.05.22,3.84,3.84,0,0,1,1.57.45c.77.39,1.26.63,1.47.7.14-.08.14-.17,0-.28s-.28-.22-.27-.28A2.19,2.19,0,0,1,314.78,296.08Zm-.85,3.09a1.32,1.32,0,0,0-.54,0,.88.88,0,0,0-.4.23c.1.1.24.09.42,0s.12-.08.16-.07.1.05.14.15l-.25.1a.13.13,0,0,0-.09.2A.63.63,0,0,0,313.93,299.17Z" transform="translate(-215.09 -288.61)"/><path class="cls-1" d="M333.68,299.36a.91.91,0,0,0-.06.16,2,2,0,0,1-.09.2c0,.14.1.15.27,0a.54.54,0,0,1,.15-.08c.05,0,.07,0,.07.09a.52.52,0,0,1-.18.63c-.07.06-.17.15-.31.25a1.9,1.9,0,0,0-.28.22c0,.05.06.09.17.11l.15,0,.15,0a5.14,5.14,0,0,1-1,.77c0,.06.05.11.22.13s.18.09.1.21a.45.45,0,0,1-.48-.19,1.09,1.09,0,0,1-.29-.51.76.76,0,0,1,.38-.05c0-.11-.07-.18-.22-.22l-.49-.06a.2.2,0,0,1,.12-.22c.11,0,.18-.09.18-.15-.23,0-.44-.14-.65-.45a2.55,2.55,0,0,0-.58-.69.18.18,0,0,1,.12-.22c.11,0,.16-.09.17-.15q-.51.13-.54-.27a.81.81,0,0,1,.28-.65.25.25,0,0,0-.32.13.26.26,0,0,1-.35.09,1.13,1.13,0,0,0-.1-.32,3.08,3.08,0,0,1-.11-.32,1.34,1.34,0,0,1,0-.77c-.45.06-.73.09-.85.09-.35,0-.56-.12-.65-.32a4.17,4.17,0,0,1-2.94.28,5.45,5.45,0,0,0-.88,1.14c-.4.63-.66,1-.79,1.22a3.31,3.31,0,0,1-2.82,1.32,1.62,1.62,0,0,0-.47-.61,18.4,18.4,0,0,1,3.43-6.22c2.42-3,4-4.77,4.37-5.38l.28,0a7.47,7.47,0,0,1,2.91,3.31,40.14,40.14,0,0,1,1.69,4.43l.22.58c.11.25.17.43.21.53a1.45,1.45,0,0,1,.06,1,.44.44,0,0,1,.14.33,1,1,0,0,0,0,.39C333.87,299.2,333.73,299.26,333.68,299.36Zm-5.6-3.72.81-.05c.29,0,.52,0,.67,0a3.84,3.84,0,0,0-.18-1.49,3.57,3.57,0,0,0-.73-1.37,12.47,12.47,0,0,0-1.11,1.34q-.78,1.05-1.05,1.38A3.72,3.72,0,0,0,328.08,295.64Zm.11,1c-.37-.06-.55,0-.53.26C328,297,328.2,296.88,328.19,296.65Z" transform="translate(-215.09 -288.61)"/><path class="cls-1" d="M343.29,300.73a.67.67,0,0,1-.21,0c-.25,0-.38.08-.37.17s.17.23.17.21,0,.14-.14.2.06.1.17.13l.14,0,.15,0a9.54,9.54,0,0,1-2.09,1.61l-.93-.19a25.55,25.55,0,0,1-.05-5.61,16.58,16.58,0,0,1,1.45-5.61q0-.12-.12-.3a.24.24,0,0,1,0-.32,10,10,0,0,1,3.84.08,13.16,13.16,0,0,1,3.86,1.27c.21-.16.62-.16,1.23,0s1,.37,1.08.62a.46.46,0,0,0,.38,0c.06,0,.1,0,.12,0s0,.09,0,.2a.4.4,0,0,1,.46,0c.33.14.52.22.6.24-.17.09-.29.33-.38.73s-.29.46-.68.47c-.14-.08-.19-.15-.15-.22a.17.17,0,0,0,0-.22,1.55,1.55,0,0,0-.45.11.42.42,0,0,0-.24.39,3,3,0,0,1-1.27-.35,3.49,3.49,0,0,0-1.11-.4.34.34,0,0,1-.2-.29.37.37,0,0,0-.18-.3,1.17,1.17,0,0,0-.78.4l-.18-.12-.17-.12a.25.25,0,0,1,0-.36,3.17,3.17,0,0,0-1.27.19c0-.22-.18-.27-.46-.16l-.22.08s0,0,.06-.16c-.32.13-.54.55-.65,1.28a7.06,7.06,0,0,1-.46,1.82,11.79,11.79,0,0,0,3.89,1.16c.11.12.1.21,0,.27s-.25.18-.26.25a.19.19,0,0,0,.24,0l.22-.22a.59.59,0,0,1,.8-.07q-.24.14-.6.39a4.4,4.4,0,0,1-.55.39,1.69,1.69,0,0,1-1.23.29c-.08,0-.13,0-.13,0a.4.4,0,0,0,.06.11c.07.13,0,.17-.12.14s-.2-.06-.21-.09,0-.05.08-.1.26-.21.25-.28-.25-.08-.58.25a.67.67,0,0,0-.47-.27,1.57,1.57,0,0,1-.58-.18c.07.19.09.29.07.29l-.15-.08-.33-.11c-.11,0-.14,0-.1.11s.09.18.15.2c-.13.11-.22.09-.28-.06a3.21,3.21,0,0,0-.14-.34c-.14-.06-.24,0-.29.08s-.1.21-.15.22-.11,0-.11-.08,0-.06,0-.13-.05-.17-.21-.15a.44.44,0,0,0-.19.36c0,.15.14.24.42.28a.73.73,0,0,1-.31.15c-.09,0-.1.11,0,.27a.68.68,0,0,1-.26-.12.24.24,0,0,0-.22,0c.15.13.2.26.14.39s0,.25.19.38a.66.66,0,0,0,.17-.34c0-.1.16-.07.39.07-.16,0-.24.08-.27.18a.78.78,0,0,0,0,.35.92.92,0,0,0-.44-.15,2.61,2.61,0,0,0-.43.06.18.18,0,0,1,0,.26.56.56,0,0,0-.14.3c0,.09.08.13.14.13a.35.35,0,0,0,.17-.07.51.51,0,0,1,.45-.09C343.33,300.7,343.33,300.72,343.29,300.73Zm7.45-7.52a.62.62,0,0,0-.28-.08c-.31,0-.46,0-.46.16a1.49,1.49,0,0,0,.8.12A.14.14,0,0,0,350.74,293.21Zm0,.52a2,2,0,0,0,.32.11c.26.06.43,0,.5-.21l-.31-.06-.32-.05c-.24,0-.39,0-.47.1Z" transform="translate(-215.09 -288.61)"/><path class="cls-1" d="M367.25,299.88a1.26,1.26,0,0,1-.52.57,17,17,0,0,1-2.93-.93,14.78,14.78,0,0,0-2.31-.81c0-.1.08-.14.22-.12s.22,0,.24-.06a1.25,1.25,0,0,0-.74,0,1.93,1.93,0,0,1-.71.07,6.86,6.86,0,0,1-.47,1,4.94,4.94,0,0,0-.44,1c.21.1.89.35,2,.79a11.21,11.21,0,0,1,1.84.87,1.53,1.53,0,0,0-.46,1.34,1.88,1.88,0,0,1-1.78.09c-.15,0-.49-.2-1-.42a8,8,0,0,0-1.13-.42c0,.12-.11.38-.25.78a5.1,5.1,0,0,0-.21.76,1.35,1.35,0,0,0,.29,1.32.91.91,0,0,1-.5-.1c-.24-.09-.38-.08-.43,0a12.44,12.44,0,0,0,2.18.85,12.71,12.71,0,0,1,2.27.89,5.23,5.23,0,0,1,.61.48,1.36,1.36,0,0,0,.61.36,1.35,1.35,0,0,1-.59,1,4.49,4.49,0,0,1-.46.28l-.36.23c-1.93-.64-3.3-1.09-4.12-1.43-1.78-.74-2.77-1.47-3-2.28a49.57,49.57,0,0,0,1.61-5.17,21.44,21.44,0,0,1,1.92-5.14,12.51,12.51,0,0,1,4.55,1,22.31,22.31,0,0,1,4.39,2.38C367.58,299.16,367.46,299.41,367.25,299.88Z" transform="translate(-215.09 -288.61)"/><path class="cls-1" d="M389.42,324.24l-.21-.09c-.23-.11-.37-.12-.41,0s.05.29.06.27-.08.11-.22.1,0,.12.09.2l.11.1.12.11a9.5,9.5,0,0,1-2.65.38l-.75-.64a25.17,25.17,0,0,1,2.59-5,16.33,16.33,0,0,1,3.93-4.26c.08-.06.09-.17,0-.32a.24.24,0,0,1,.12-.3,10.27,10.27,0,0,1,3.44,2,14.26,14.26,0,0,1,2.9,3.09c.26,0,.63.18,1.11.64s.71.85.69,1.12a.49.49,0,0,0,.37.15c.06,0,.1,0,.11.05s0,.1-.09.18a.42.42,0,0,1,.42.21c.23.3.38.48.43.53-.19,0-.42.15-.68.46s-.48.26-.84.06q-.14-.21,0-.27c.09,0,.13-.11.11-.2a1.7,1.7,0,0,0-.45-.13.44.44,0,0,0-.41.23,3.32,3.32,0,0,1-1-1,3.66,3.66,0,0,0-.83-.93.37.37,0,0,1,0-.36.43.43,0,0,0,0-.36,1.21,1.21,0,0,0-.9,0c0-.05-.06-.11-.11-.2a.75.75,0,0,1-.09-.19.24.24,0,0,1,.12-.34,3.24,3.24,0,0,0-1.24-.48c.09-.2,0-.33-.34-.38l-.23,0s0-.05.13-.1c-.35-.06-.75.21-1.19.8a7,7,0,0,1-1.27,1.4,13.22,13.22,0,0,0,3,3c0,.17,0,.25-.14.24s-.31,0-.35.09.11.16.2.15l.31-.09a.62.62,0,0,1,.75.35c-.19,0-.43,0-.73,0s-.56.06-.68.06a1.77,1.77,0,0,1-1.24-.37c-.06-.07-.1-.09-.12-.07a.25.25,0,0,0,0,.13c0,.15-.06.17-.17.06s-.15-.15-.15-.19,0,0,.12,0,.33-.05.36-.12-.19-.21-.65-.08a.68.68,0,0,0-.3-.48,1.94,1.94,0,0,1-.44-.45c0,.21,0,.3-.07.29s0,0-.1-.14a3.08,3.08,0,0,0-.25-.27c-.08-.09-.12-.07-.14,0s0,.21.05.25c-.17,0-.25,0-.23-.19a1.67,1.67,0,0,0,0-.37c-.1-.13-.2-.15-.3-.08s-.19.13-.24.12-.08-.08-.06-.13l.08-.11q.12-.13-.12-.24a.43.43,0,0,0-.34.23c-.07.14,0,.29.25.47a.78.78,0,0,1-.35,0c-.09,0-.15.05-.16.22a.76.76,0,0,1-.18-.24c0-.05-.1-.08-.21-.1q.12.28-.06.42c-.11.08-.11.22,0,.43.06,0,.17-.07.31-.22s.18,0,.32.26c-.15-.06-.25,0-.32,0a.78.78,0,0,0-.15.32.92.92,0,0,0-.32-.35,2,2,0,0,0-.41-.17c0,.13,0,.21-.11.25a.55.55,0,0,0-.27.19.2.2,0,0,0,.06.19.44.44,0,0,0,.19,0,.51.51,0,0,1,.45.14C389.46,324.22,389.46,324.25,389.42,324.24Zm10.27-2.91a.64.64,0,0,0-.22-.21c-.27-.18-.43-.22-.49-.09a1.66,1.66,0,0,0,.66.51A.15.15,0,0,0,399.69,321.33Zm-.25.47a2.25,2.25,0,0,0,.24.26c.21.19.39.21.56.07-.06-.05-.15-.11-.26-.21l-.27-.21c-.2-.15-.35-.2-.47-.16A2.7,2.7,0,0,1,399.44,321.8Z" transform="translate(-215.09 -288.61)"/><path class="cls-1" d="M410.7,339.79c-.12-.14-.21-.22-.26-.22.05.25,0,.39-.2.42a.14.14,0,0,1-.15-.07.4.4,0,0,1,0-.29l-.34.72c-.17.22-.4.23-.7,0,.11.24.11.41,0,.5s-.24.1-.45,0c0,.09,0,.21.19.36a1.22,1.22,0,0,1,.42.52,3.62,3.62,0,0,0-1.21-.46c.08.29,0,.45-.16.51s-.26.21-.2.48a1.56,1.56,0,0,0-1.27.19,1.82,1.82,0,0,0-.81.9l-.6-.24c-.21-.09-.36,0-.43.26l-.33-.47a.25.25,0,0,1-.31.18,1.25,1.25,0,0,1-.51-.23,2.06,2.06,0,0,1-.45-.43.6.6,0,0,1-.16-.44,4.53,4.53,0,0,1-2.12-1.53,6.39,6.39,0,0,1-1.17-2.38,6.13,6.13,0,0,1-.2-2.49,2.84,2.84,0,0,1,.9-1.85.19.19,0,0,0,0-.2.48.48,0,0,1-.09-.1l-.09-.11a12.9,12.9,0,0,1,2.76-3.19,9.24,9.24,0,0,1,4-2.11,12.27,12.27,0,0,1,1.14,1.69,12.86,12.86,0,0,0-2.55,2.49,11.54,11.54,0,0,1-2.71,2.49.47.47,0,0,0-.17.35,1.89,1.89,0,0,1-.05.4,1.22,1.22,0,0,0-.89,1.25,3.82,3.82,0,0,0,.49,1.94,3.6,3.6,0,0,0,1.31,1.53,1.38,1.38,0,0,0,1.65,0c.19-.06.31,0,.34.29a.4.4,0,0,1,.34-.17.47.47,0,0,0,.34-.15c0-.05,0-.1,0-.14a.62.62,0,0,1-.21-.22,7.87,7.87,0,0,0,2.91-1.77l.27.37c.1,0,.1-.14,0-.34s-.17-.27-.29-.22a4.8,4.8,0,0,0,1.72-1.29,2.87,2.87,0,0,1,2.15-1,3.28,3.28,0,0,1,.81,1.31,1.61,1.61,0,0,1,0,1,.78.78,0,0,1-.55.51,1.13,1.13,0,0,1-.89-.25c.07-.12.22.1.44.64,0,.12-.2.09-.46-.07-.1-.06-.16-.07-.17-.05s0,.12.1.3a1.1,1.1,0,0,1-.43-.26c0,.05,0,.13.06.26l.11.16a.71.71,0,0,1,.09.15c-.16.16-.34.1-.52-.2a.54.54,0,0,0-.15.42,3,3,0,0,1,0,.46C410.9,340,410.81,339.94,410.7,339.79Z" transform="translate(-215.09 -288.61)"/><path class="cls-1" d="M416.92,355.82a.48.48,0,0,1-.53,0,.49.49,0,0,0-.54.05,1,1,0,0,0-.24-.42,1.83,1.83,0,0,1-.24-.33,1.94,1.94,0,0,0,.43-1.45,2,2,0,0,1,.41-1.46,3.76,3.76,0,0,1,.28-1.35,2.59,2.59,0,0,0,.14-1.42s-.15.08-.32.29-.36.27-.54.19a.78.78,0,0,1,.5-.84c.39-.21.57-.47.52-.77-.13-.11-.26-.09-.4.06a1.74,1.74,0,0,0-.16.18.58.58,0,0,1-.12.15.51.51,0,0,0-.33-.34.58.58,0,0,0-.42,0,1,1,0,0,0-.35.28.46.46,0,0,0-.08.36c-.17-.15-.32-.18-.46-.08a1.72,1.72,0,0,0-.31.45,1.14,1.14,0,0,1-.3.4c-.13.06-.27,0-.44-.24l-.3.42c-.11.11-.27.11-.47,0q-.07.06,0,.3c.07.16.1.26.07.31s-.16,0-.21-.18l-.07-.32a10.22,10.22,0,0,1-1.2,1.08,2.4,2.4,0,0,0-.9,1.42c-.48-.54-.83-.81-1.05-.84q-.06.08,0,.12s0,0,.12.06a.32.32,0,0,1,.27.25l-1,.08a4.36,4.36,0,0,1-.19-.48,2.19,2.19,0,0,0-.16-.39.55.55,0,0,0-.56-.33c0-.77.56-1.44,1.59-2a21.88,21.88,0,0,1,2.69-1.06c.05,0,.06-.14.05-.28a.36.36,0,0,1,.07-.3,38.52,38.52,0,0,1,5.33-3.41,4.91,4.91,0,0,1,1.62,4.24,17.28,17.28,0,0,1-.27,2.21,17.94,17.94,0,0,0-.27,1.82.73.73,0,0,0-.58.64,1,1,0,0,1-.58.79.19.19,0,0,0,.24.08c.12,0,.2,0,.25,0,0,.24-.13.43-.49.58-.08-.25-.2-.39-.37-.4a.22.22,0,0,0-.27.22.29.29,0,0,0,.49.08.64.64,0,0,0,.08.57,1.13,1.13,0,0,1,.29.42C417,355.25,416.71,355.43,416.92,355.82Zm-2-8.29a.84.84,0,0,0-.36.28.44.44,0,0,1-.32.13.4.4,0,0,0,.47.17.48.48,0,0,1,.48.11A1.37,1.37,0,0,0,414.88,347.53Zm-.7.58a2.92,2.92,0,0,0-1.65,1.3c.25.09.54,0,.87-.35a1.48,1.48,0,0,1,.92-.51A1.14,1.14,0,0,1,414.18,348.11Zm-5.2,3.06c.06.1.12.16.2.17a.89.89,0,0,0,.24-.06.51.51,0,0,1,.22,0c.08,0,.14.1.2.23q0-.06.27-.27a.26.26,0,0,0,0-.39C409.48,351,409.1,351.12,409,351.17Zm4,.46c.1,0,.17,0,.22.19l.06.32-.41.06c-.08-.12-.08-.22,0-.3S413,351.72,413,351.63Zm-.57.81a.34.34,0,0,1-.29.12.62.62,0,0,0-.29.05.65.65,0,0,1,.38-.54Zm2.76,10.47c-.1,0-.15.09-.14.26s-.06.22-.21.2a2.1,2.1,0,0,0-.32-1.11,1.84,1.84,0,0,0-.72-.78.74.74,0,0,1-.08-.39,2.22,2.22,0,0,0,0-.34l.41,0c.11.44.55-1.09,1.07-4.68a3.12,3.12,0,0,1,.4.05c.12,0,.21-.05.29-.22.16.4.34.53.53.4,0,.09-.08.24-.3.46s-.17.46,0,.8a2.15,2.15,0,0,1-.56.17.37.37,0,0,0-.26.4.43.43,0,0,1,.35.16c.07.11,0,.23-.11.37a.59.59,0,0,0,.36.22c.17,0,.24,0,.22-.17a.48.48,0,0,0,.28.4.85.85,0,0,0,.47,0l.49-.09a.35.35,0,0,1,.35.11.86.86,0,0,1,.84-.54.21.21,0,0,1,0,.27.25.25,0,0,0-.07.26s.12-.09.27-.3a.88.88,0,0,0,.2-.58.72.72,0,0,1,.68.09.46.46,0,0,0,.56,0,.52.52,0,0,1,0,.25.51.51,0,0,0,0,.25.3.3,0,0,0,.39-.19,1,1,0,0,1,.3-.45,6.48,6.48,0,0,0,.86.52c.37.14.63.06.77-.24,0-.77.19-.84.45-.2a.55.55,0,0,0,.59,0c.22-.12.26-.35.1-.69a1.4,1.4,0,0,0,.65.24,2.44,2.44,0,0,1-.11-1c0-.45-.08-.71-.24-.77s0-.2.1-.24.27-.09.28-.12a15.59,15.59,0,0,0,.45,1.71,5.81,5.81,0,0,0,.88,1.56,1.84,1.84,0,0,0-.43.42c-.22.27-.36.43-.42.49a1,1,0,0,1-1.13.26.49.49,0,0,1-.43.57,1,1,0,0,1-.81-.22c-.18.11-.67.43-1.47,1a17,17,0,0,1-1.77,1.07A4.61,4.61,0,0,1,415.17,362.91Zm.09-3.21c.06,0,.17,0,.31.08a.23.23,0,0,0,.35-.06.34.34,0,0,0-.4-.23C415.31,359.51,415.22,359.58,415.26,359.7Zm3.88-.3a.58.58,0,0,0,.41-.45c.08-.25.05-.42-.09-.52A2,2,0,0,0,419.14,359.4Zm1.65-.9c-.23.06-.23.29,0,.68C421,359.12,421,358.89,420.79,358.5Zm-.9,1.39a.45.45,0,0,0,.39-.29,1.44,1.44,0,0,0,.07-.22,1.23,1.23,0,0,1,.09-.22C420,359.19,419.85,359.44,419.89,359.89Z" transform="translate(-215.09 -288.61)"/></svg>